<svg id="Capa_1" enable-background="new 0 0 512 512" height="512" viewBox="0 0 512 512" width="512" xmlns="http://www.w3.org/2000/svg"><g><path d="m235.729 43.109v9.5c0 17.716 14.412 32.129 32.128 32.129h.812l2.746 2.746c.001 0 .002.001.003.002 2.039 2.037 4.718 3.057 7.396 3.057 2.68 0 5.36-1.02 7.401-3.059l2.746-2.746h.812c17.716 0 32.128-14.413 32.128-32.129v-9.5c0-4.939-4.019-8.958-8.958-8.958h-9.5c-4.017 0-7.951.748-11.637 2.182l-6.657-6.657c-1.692-1.691-3.942-2.623-6.335-2.623s-4.643.932-6.335 2.623l-6.657 6.657c-3.686-1.435-7.62-2.182-11.637-2.182h-9.499c-4.939 0-8.957 4.019-8.957 8.958zm71.173 6.042v3.458c0 5.373-2.491 10.17-6.372 13.312 1.165-5.413.926-11.067-.723-16.379 1.187-.257 2.404-.392 3.637-.392h3.458zm-28.087-4.595 2.445 2.446c6.679 6.678 6.679 17.545 0 24.223l-2.445 2.446-2.445-2.446c-6.679-6.678-6.679-17.545 0-24.223zm-28.086 4.595h3.458c1.233 0 2.451.134 3.637.392-1.648 5.312-1.888 10.966-.723 16.379-3.882-3.143-6.372-7.94-6.372-13.312z"/><path d="m504.5 497h-60.4v-135.139h.904c4.143 0 7.5-3.357 7.5-7.5s-3.357-7.5-7.5-7.5h-.904v-129.221c0-8.093-6.584-14.677-14.677-14.677h-13.008v-10.454c0-4.143-3.357-7.5-7.5-7.5s-7.5 3.357-7.5 7.5v10.454h-44.01v-92.841c0-.007.001-.013.001-.02v-95.425c0-8.093-6.584-14.677-14.677-14.677h-70.232c-4.143 0-7.5 3.357-7.5 7.5s3.357 7.5 7.5 7.5h69.91v87.603h-127.182v-87.603h27.284c4.143 0 7.5-3.357 7.5-7.5s-3.357-7.5-7.5-7.5h-27.606c-8.094 0-14.678 6.584-14.678 14.677v87.926h-117.649c-8.093 0-14.677 6.584-14.677 14.677v150.14c0 4.143 3.357 7.5 7.5 7.5s7.5-3.357 7.5-7.5v-49.456h34.094v128.898h-34.094v-49.455c0-4.143-3.357-7.5-7.5-7.5s-7.5 3.357-7.5 7.5v49.455h-.904c-4.143 0-7.5 3.357-7.5 7.5s3.357 7.5 7.5 7.5h.904v135.138h-60.399c-4.143 0-7.5 3.357-7.5 7.5s3.357 7.5 7.5 7.5h497c4.143 0 7.5-3.357 7.5-7.5s-3.357-7.5-7.5-7.5zm-75.4-193.519h-94.176v-13.569h94.176zm0-28.569h-101.676c-4.143 0-7.5 3.357-7.5 7.5v28.569c0 4.143 3.357 7.5 7.5 7.5h101.676v28.38h-149.823v-128.898h149.823zm-248.012 71.949v-128.898h34.095v128.898zm-63.876-143.898v-85.36h19.313v85.36zm34.313-85.36h19.313v85.36h-19.313zm137.254 85.36v-85.36h19.313v85.36zm-15 0h-19.313v-85.36h19.313zm-34.313 0h-19.313v-85.36h19.313zm-34.314-85.36v85.36h-19.313v-85.36zm25.031 100.36h34.094v128.898h-34.094zm112.222-15h-19.312v-85.36h19.312zm-259.506-85.36h19.312v85.36h-19.312zm49.094 100.36h34.095v128.898h-34.095zm-6.074 279.037v-40.485c0-.282.229-.512.512-.512h84.733c.282 0 .512.229.512.512v40.485zm100.757 0v-40.485c0-8.553-6.959-15.512-15.512-15.512h-84.733c-8.553 0-15.512 6.959-15.512 15.512v40.485h-28.02v-135.139h346.2v135.139z"/><path d="m396.93 379.997h-139.011c-8.134 0-14.751 6.617-14.751 14.751v46.504c0 8.134 6.617 14.751 14.751 14.751h54.512c4.143 0 7.5-3.357 7.5-7.5s-3.357-7.5-7.5-7.5h-54.263v-46.006h138.513v46.006h-54.263c-4.143 0-7.5 3.357-7.5 7.5s3.357 7.5 7.5 7.5h54.512c8.134 0 14.751-6.617 14.751-14.751v-46.504c0-8.134-6.618-14.751-14.751-14.751z"/></g></svg>