<svg id="Capa_1" enable-background="new 0 0 512 512" height="512" viewBox="0 0 512 512" width="512" xmlns="http://www.w3.org/2000/svg"><g><path d="m512 291.949c0-33.842-15.429-65.067-42.329-85.67-15.256-11.685-24.363-30.298-24.363-49.79v-25.117h7.759c9.039 0 16.393-7.354 16.393-16.393v-10.133c0-9.039-7.354-16.393-16.393-16.393h-97.852c-9.039 0-16.393 7.354-16.393 16.393v10.133c0 9.039 7.354 16.393 16.393 16.393h7.759v24.355c0 19.929-9.162 38.869-24.509 50.664-12.829 9.86-23.291 22.569-30.567 36.898-2.827-11.197-4.292-22.771-4.292-34.469v-98.666h6.721c7.452 0 13.516-6.063 13.516-13.516v-15.932c0-7.452-6.063-13.516-13.516-13.516h-60.407c-4.143 0-7.5 3.357-7.5 7.5s3.357 7.5 7.5 7.5h58.923v12.963c-13.429 0-95.183 0-105.683 0v-12.962h16.772c4.143 0 7.5-3.357 7.5-7.5s-3.357-7.5-7.5-7.5h-18.257c-7.452 0-13.516 6.063-13.516 13.516v15.932c0 7.452 6.063 13.516 13.516 13.516h6.721v98.666c0 11.695-1.465 23.266-4.29 34.461-7.304-14.376-17.816-27.123-30.715-37.002-15.256-11.685-24.364-30.297-24.364-49.79v-25.117h7.76c9.039 0 16.393-7.354 16.393-16.393v-10.133c0-9.039-7.354-16.393-16.393-16.393h-97.854c-9.039 0-16.393 7.354-16.393 16.393v10.133c0 9.039 7.354 16.393 16.393 16.393h7.76v24.355c0 19.929-9.162 38.868-24.509 50.664-26.158 20.104-41.526 50.513-42.164 83.43-.617 31.837 12.898 62.216 37.083 83.347 1.422 1.243 3.181 1.853 4.932 1.853 2.089 0 4.168-.868 5.65-2.565 2.726-3.119 2.406-7.856-.713-10.582-20.839-18.209-32.486-44.365-31.954-71.761.548-28.337 13.781-54.517 36.307-71.828 19.016-14.615 30.368-38.001 30.368-62.557v-24.355h52.333v25.117c0 24.13 11.306 47.195 30.243 61.698 15.402 11.797 26.842 28.333 32.447 46.77-2.356 5.428-5.055 10.711-8.084 15.817-2.88-21.198-13.911-40.312-31.252-53.594-3.591-2.749-7.01-5.83-10.16-9.157-3.669-3.872-8.887-6.094-14.315-6.094h-50.157c-5.445 0-10.675 2.233-14.347 6.128-3.159 3.351-6.582 6.448-10.175 9.208-19.779 15.205-31.4 38.191-31.883 63.066-.421 21.749 7.757 42.425 23.03 58.22 16.302 16.852 39.046 26.378 63.924 24.736-2.217 3.642-3.909 7.507-5.05 11.503-13.651.064-26.291-2.774-37.875-7.936-3.778-1.685-8.217.015-9.903 3.798s.014 8.217 3.798 9.903c12.935 5.765 26.955 9.027 42.261 9.245.295 5.951 1.732 11.918 4.362 17.613 7.804 16.899 24.214 27.397 42.828 27.397h204.563c18.614 0 35.024-10.498 42.828-27.397 2.63-5.697 4.068-11.666 4.362-17.619 28.042-.333 54.366-11.287 74.398-31.041 20.721-20.435 32.131-47.711 32.131-76.806zm-453.067-175.578c-.768 0-1.393-.625-1.393-1.393v-10.133c0-.768.625-1.393 1.393-1.393h97.853c.768 0 1.393.625 1.393 1.393v10.133c0 .768-.625 1.393-1.393 1.393-13.932 0-83.818 0-97.853 0zm294.889-1.392v-10.133c0-.768.625-1.393 1.393-1.393h97.852c.768 0 1.393.625 1.393 1.393v10.133c0 .768-.625 1.393-1.393 1.393-10.612 0-82.822 0-97.852 0-.768-.001-1.393-.626-1.393-1.393zm-293.666 223.142c-12.477-12.902-19.158-29.771-18.814-47.5.393-20.294 9.879-39.053 26.025-51.464 4.222-3.243 8.242-6.881 11.948-10.812.85-.901 2.101-1.418 3.433-1.418h50.156c1.328 0 2.576.514 3.425 1.409 3.696 3.903 7.711 7.521 11.931 10.751 16.607 12.719 26.132 31.985 26.132 52.86 0 3.124-.239 6.312-.696 9.501l-46.029 54.025c-23.12 7.186-49.214 1.564-67.511-17.352zm327.336 73.002c-5.322 11.525-16.515 18.686-29.21 18.686h-204.564c-12.695 0-23.888-7.16-29.21-18.686s-3.514-24.689 4.72-34.354l56.925-66.812c.093-.109.182-.22.274-.329l.077-.093s.001-.001.001-.002c23.782-28.116 36.889-63.873 36.889-100.714v-98.666h65.21v98.666c0 61.704 35.974 99.126 36.872 100.693 63.906 75.017 56.74 66.606 57.295 67.257 8.235 9.665 10.043 22.828 4.721 34.354zm16.264-26.323c-1.142-4-2.835-7.869-5.053-11.514 24.424 1.63 48.082-7.494 65.197-25.892 2.819-3.034 2.646-7.779-.389-10.6-3.035-2.819-7.78-2.645-10.6.389-16.823 18.126-43.58 26.143-68.628 18.23l-45.973-53.959c-.521-3.587-.758-7.22-.688-10.832.394-20.294 9.881-39.053 26.026-51.464 4.223-3.244 8.242-6.882 11.947-10.812.85-.901 2.102-1.418 3.434-1.418h50.156c1.327 0 2.575.514 3.424 1.409 3.695 3.901 7.71 7.519 11.932 10.751 16.606 12.719 26.131 31.985 26.131 52.86 0 7.625-1.271 15.095-3.778 22.202-1.379 3.906.671 8.189 4.577 9.567 3.897 1.379 8.189-.666 9.568-4.577 3.074-8.715 4.633-17.863 4.633-27.192 0-25.581-11.667-49.188-32.011-64.77-3.594-2.751-7.012-5.832-10.161-9.157-3.669-3.872-8.887-6.094-14.314-6.094h-50.156c-5.446 0-10.676 2.233-14.348 6.128-3.158 3.351-6.581 6.448-10.173 9.208-17.218 13.235-28.25 32.368-31.139 53.51-3.028-5.103-5.725-10.383-8.081-15.807 5.59-18.394 16.984-34.899 32.316-46.684 19.016-14.614 30.368-38 30.368-62.557v-24.355h52.334v25.117c0 24.13 11.306 47.194 30.242 61.698 23.165 17.741 36.45 44.626 36.45 73.762 0 25.049-9.823 48.532-27.661 66.122-17.609 17.366-40.888 26.801-65.582 26.731z"/><path d="m375.161 383.255-56.926-66.813c-18.484-21.697-31.133-47.988-36.578-76.031-1.181-6.084-6.54-10.5-12.742-10.5h-25.829c-6.204 0-11.562 4.417-12.741 10.5-5.446 28.045-18.095 54.336-36.58 76.031l-56.925 66.814c-5.761 6.762-6.977 15.613-3.252 23.673 3.722 8.065 11.247 12.88 20.131 12.88h204.563c18.951 0 29.184-22.11 16.879-36.554zm-10.367 17.389c-1.275 2.764-3.467 4.165-6.512 4.165h-204.564c-3.045 0-5.236-1.401-6.513-4.168-1.277-2.764-.923-5.34 1.052-7.657l56.925-66.813c19.795-23.233 33.452-51.298 39.561-81.26h22.516c6.105 29.959 19.763 58.022 39.559 81.26l56.926 66.812c1.974 2.318 2.328 4.894 1.05 7.661z"/></g></svg>