<svg id="Capa_1" enable-background="new 0 0 511.977 511.977" height="512" viewBox="0 0 511.977 511.977" width="512" xmlns="http://www.w3.org/2000/svg"><g><path d="m200.742 318.572c1.919 0 3.839-.732 5.304-2.196 2.929-2.93 2.929-7.678 0-10.607l-11.934-11.934c-2.93-2.928-7.678-2.928-10.607 0-2.929 2.93-2.929 7.678 0 10.607l11.934 11.934c1.464 1.464 3.384 2.196 5.303 2.196z"/><path d="m76.648 375.759c-2.93-2.928-7.678-2.928-10.607 0l-23.003 23.003c-2.929 2.93-2.929 7.678 0 10.607 1.465 1.464 3.385 2.196 5.304 2.196s3.839-.732 5.304-2.196l23.003-23.003c2.928-2.929 2.928-7.677-.001-10.607z"/><path d="m72.079 435.302c1.919 0 3.839-.732 5.304-2.196l23.002-23.002c2.929-2.93 2.929-7.678 0-10.607-2.93-2.928-7.678-2.928-10.607 0l-23.002 23.002c-2.929 2.93-2.929 7.678 0 10.607 1.464 1.463 3.384 2.196 5.303 2.196z"/><path d="m124.122 423.233c-2.93-2.928-7.678-2.928-10.607 0l-23.003 23.003c-2.929 2.93-2.929 7.678 0 10.607 1.465 1.464 3.385 2.196 5.304 2.196s3.839-.732 5.304-2.196l23.003-23.003c2.928-2.93 2.928-7.678-.001-10.607z"/><path d="m349.782 323.419c4.143 0 7.5-3.357 7.5-7.5v-9.28h9.28c4.143 0 7.5-3.357 7.5-7.5s-3.357-7.5-7.5-7.5h-9.28v-9.28c0-4.143-3.357-7.5-7.5-7.5s-7.5 3.357-7.5 7.5v9.28h-9.279c-4.143 0-7.5 3.357-7.5 7.5s3.357 7.5 7.5 7.5h9.279v9.28c0 4.143 3.358 7.5 7.5 7.5z"/><path d="m456.216 157.056c-30.747 0-55.761 25.015-55.761 55.762s25.014 55.762 55.761 55.762 55.762-25.015 55.762-55.762-25.015-55.762-55.762-55.762zm0 96.523c-22.476 0-40.761-18.285-40.761-40.762s18.285-40.762 40.761-40.762c22.477 0 40.762 18.285 40.762 40.762s-18.286 40.762-40.762 40.762z"/><path d="m472.996 205.318h-9.28v-9.28c0-4.143-3.357-7.5-7.5-7.5s-7.5 3.357-7.5 7.5v9.28h-9.279c-4.143 0-7.5 3.357-7.5 7.5s3.357 7.5 7.5 7.5h9.279v9.28c0 4.143 3.357 7.5 7.5 7.5s7.5-3.357 7.5-7.5v-9.28h9.28c4.143 0 7.5-3.357 7.5-7.5s-3.357-7.5-7.5-7.5z"/><path d="m243.309 296.887 178.334-178.335 22.255-1.5c2.482-.168 4.72-1.556 5.974-3.704l36.895-63.252c1.717-2.943 1.233-6.674-1.176-9.083l-26.724-26.723c-2.407-2.407-6.14-2.893-9.081-1.175l-14.163 8.261c-3.578 2.087-4.787 6.679-2.7 10.257 2.086 3.579 6.683 4.788 10.257 2.7l9.17-5.348 18.547 18.546-31.977 54.821-21.094 1.422c-1.811.122-3.516.896-4.799 2.18l-180.325 180.326-19.102-19.101 180.327-180.324c1.283-1.283 2.058-2.988 2.18-4.799l1.422-21.095 19.654-11.464c3.577-2.087 4.786-6.68 2.699-10.258-2.088-3.578-6.681-4.787-10.258-2.699l-23.09 13.469c-2.148 1.254-3.536 3.491-3.704 5.974l-1.501 22.255-178.336 178.334-6.836-6.836c-9.655-9.657-25.336-10.257-35.699-1.368-19.608 16.813-35.155 35.869-46.211 56.641-4.922 9.251-13.165 16.827-23.338 20.828-25.509 10.037-47.942 23.273-66.679 39.339-30.689 26.313-32.487 73.283-3.904 101.867l12.513 12.512c12.783 12.782 29.776 20.002 47.849 20.328.046.001.092.001.138.001 4.078 0 7.422-3.27 7.496-7.364.074-4.142-3.223-7.56-7.364-7.635-14.167-.255-27.489-5.915-37.512-15.938l-12.512-12.511c-22.329-22.331-21.189-59.081 3.062-79.875 17.463-14.973 38.459-27.343 62.406-36.766 13.542-5.329 24.508-15.374 31.088-27.741 10.172-19.112 24.55-36.709 42.732-52.3 4.451-3.815 11.185-3.558 15.328.588 43.584 43.591-14.744-14.715 49.314 49.314 6.767 6.766 7.188 17.756.959 25.021-12.736 14.854-28.885 27.543-47.998 37.714-12.323 6.56-22.39 17.494-27.74 31.088-9.422 23.946-21.792 44.943-36.767 62.407-4.514 5.265-9.896 9.56-15.999 12.768-3.667 1.927-5.077 6.462-3.149 10.128 1.928 3.668 6.462 5.077 10.128 3.149 7.788-4.094 14.654-9.571 20.407-16.281 16.066-18.737 29.302-41.172 39.339-66.679 4.002-10.173 11.575-18.413 20.829-23.339 20.77-11.053 38.379-24.911 52.337-41.191 11.3-13.178 10.536-33.116-1.738-45.392z"/><path d="m349.783 243.377c-30.747 0-55.762 25.015-55.762 55.762s25.015 55.762 55.762 55.762c20.523 0 39.336-11.23 49.095-29.309 1.968-3.645.608-8.194-3.037-10.162s-8.196-.607-10.162 3.037c-7.137 13.221-20.892 21.434-35.896 21.434-22.477 0-40.762-18.285-40.762-40.762s18.285-40.762 40.762-40.762c20.174 0 37.518 15.039 40.345 34.982.581 4.102 4.379 6.958 8.479 6.373 4.101-.581 6.954-4.377 6.373-8.479-3.87-27.293-27.599-47.876-55.197-47.876z"/></g></svg>