<svg id="Capa_1" enable-background="new 0 0 512 512" height="512" viewBox="0 0 512 512" width="512" xmlns="http://www.w3.org/2000/svg"><g><path d="m504.5 450.557h-1.665v-187.057h1.665c4.143 0 7.5-3.357 7.5-7.5s-3.357-7.5-7.5-7.5h-1.665v-45.222c0-50.927-41.433-92.359-92.359-92.359h-28.388v-1.665c0-4.143-3.357-7.5-7.5-7.5s-7.5 3.357-7.5 7.5v1.665h-112.175c-4.143 0-7.5 3.357-7.5 7.5s3.357 7.5 7.5 7.5h112.175v32c-9.946 0-158.024 0-167.237 0v-32h25.075c4.143 0 7.5-3.357 7.5-7.5s-3.357-7.5-7.5-7.5h-25.075v-1.665c0-4.143-3.357-7.5-7.5-7.5s-7.5 3.357-7.5 7.5v1.665h-18.356c-16.741 0-30.36-13.619-30.36-30.36v-24.165h3.665c4.143 0 7.5-3.357 7.5-7.5s-3.357-7.5-7.5-7.5h-3.665v-33.894c0-4.143-3.357-7.5-7.5-7.5s-7.5 3.357-7.5 7.5v33.894h-32v-33.894c0-4.143-3.357-7.5-7.5-7.5s-7.5 3.357-7.5 7.5v33.894h-1.665c-4.143 0-7.5 3.357-7.5 7.5s3.357 7.5 7.5 7.5h1.665v24.165c0 50.928 41.433 92.36 92.36 92.36h18.356v1.665c0 4.143 3.357 7.5 7.5 7.5s7.5-3.357 7.5-7.5v-1.665h41.734v27.737h-1.665c-4.143 0-7.5 3.357-7.5 7.5s3.357 7.5 7.5 7.5h1.665v22.844h-6.118c-8.883 0-16.109 7.227-16.109 16.108v70.34c0 8.882 7.227 16.108 16.109 16.108h6.118v22.844h-1.665c-4.143 0-7.5 3.357-7.5 7.5s3.357 7.5 7.5 7.5h1.665v17.796c0 11.603-9.439 21.041-21.041 21.041h-14.893v-1.603c0-4.143-3.357-7.5-7.5-7.5s-7.5 3.357-7.5 7.5v1.603h-135.363v-1.603c0-4.143-3.357-7.5-7.5-7.5s-7.5 3.357-7.5 7.5v1.603h-32.788c-4.143 0-7.5 3.357-7.5 7.5s3.357 7.5 7.5 7.5h32.788v32h-32.788c-4.143 0-7.5 3.357-7.5 7.5s3.357 7.5 7.5 7.5h32.788v1.729c0 4.143 3.357 7.5 7.5 7.5s7.5-3.357 7.5-7.5v-1.729h49.452c4.143 0 7.5-3.357 7.5-7.5s-3.357-7.5-7.5-7.5h-49.452v-32h135.363v32h-55.924c-4.143 0-7.5 3.357-7.5 7.5s3.357 7.5 7.5 7.5h55.924v1.729c0 4.143 3.357 7.5 7.5 7.5s7.5-3.357 7.5-7.5v-1.729h14.893c45.789 0 83.041-37.252 83.041-83.041v-17.796h1.665c4.143 0 7.5-3.357 7.5-7.5s-3.357-7.5-7.5-7.5h-1.665v-22.844h6.118c8.883 0 16.109-7.227 16.109-16.108v-70.34c0-8.882-7.227-16.108-16.109-16.108h-6.118v-22.844h1.665c4.143 0 7.5-3.357 7.5-7.5s-3.357-7.5-7.5-7.5h-1.665v-27.737h63.503v1.665c0 4.143 3.357 7.5 7.5 7.5s7.5-3.357 7.5-7.5v-1.665h28.388c16.74 0 30.359 13.619 30.359 30.359v45.222h-1.665c-4.143 0-7.5 3.357-7.5 7.5s3.357 7.5 7.5 7.5h1.665v137.642c0 4.143 3.357 7.5 7.5 7.5s7.5-3.357 7.5-7.5v-137.642h32v187.057h-32v-19.429c0-4.143-3.357-7.5-7.5-7.5s-7.5 3.357-7.5 7.5v19.429h-1.665c-4.143 0-7.5 3.357-7.5 7.5s3.357 7.5 7.5 7.5h1.665v38.943c0 4.143 3.357 7.5 7.5 7.5s7.5-3.357 7.5-7.5v-38.943h32v38.943c0 4.143 3.357 7.5 7.5 7.5s7.5-3.357 7.5-7.5v-38.943h1.665c4.143 0 7.5-3.357 7.5-7.5s-3.357-7.5-7.5-7.5zm-338.006-292.638c-42.656 0-77.36-34.704-77.36-77.36v-24.165h32v24.165c0 25.012 20.349 45.36 45.36 45.36h18.356v32zm122.091 238.777c0 37.518-30.523 68.041-68.041 68.041h-14.893v-32h14.893c19.873 0 36.041-16.168 36.041-36.041v-17.796h32zm0-32.796h-32v-22.844h32zm22.227-109.292v70.34c0 .611-.498 1.108-1.109 1.108h-74.236c-.611 0-1.109-.497-1.109-1.108v-70.34c0-.611.498-1.108 1.109-1.108h74.236c.611 0 1.109.497 1.109 1.108zm-22.227-16.108h-32v-22.844h32zm0-37.844h-32v-27.737h32zm167.25 47.844v-45.222c0-25.012-20.348-45.359-45.359-45.359h-28.388v-32h28.388c42.656 0 77.359 34.703 77.359 77.359v45.222z"/><path d="m272.585 256.744c-18.215 0-33.034 14.819-33.034 33.034s14.819 33.034 33.034 33.034 33.034-14.819 33.034-33.034-14.819-33.034-33.034-33.034zm0 51.068c-9.944 0-18.034-8.09-18.034-18.034s8.09-18.034 18.034-18.034 18.034 8.09 18.034 18.034-8.09 18.034-18.034 18.034z"/></g></svg>