<svg id="Capa_1" enable-background="new 0 0 512 512" height="512" viewBox="0 0 512 512" width="512" xmlns="http://www.w3.org/2000/svg"><g><path d="m197.04 312.949h-100.778c-4.143 0-7.5 3.357-7.5 7.5s3.357 7.5 7.5 7.5h100.778c4.143 0 7.5-3.357 7.5-7.5s-3.357-7.5-7.5-7.5z"/><path d="m197.04 345.015h-100.778c-4.143 0-7.5 3.357-7.5 7.5s3.357 7.5 7.5 7.5h100.778c4.143 0 7.5-3.357 7.5-7.5s-3.357-7.5-7.5-7.5z"/><path d="m197.04 377.081h-100.778c-4.143 0-7.5 3.357-7.5 7.5s3.357 7.5 7.5 7.5h100.778c4.143 0 7.5-3.357 7.5-7.5s-3.357-7.5-7.5-7.5z"/><path d="m221.359 177.276c0-4.143-3.357-7.5-7.5-7.5h-134.416c-4.143 0-7.5 3.357-7.5 7.5s3.357 7.5 7.5 7.5h134.416c4.143 0 7.5-3.357 7.5-7.5z"/><path d="m90.098 202.602v13.042c0 4.143 3.357 7.5 7.5 7.5s7.5-3.357 7.5-7.5v-13.042c0-4.143-3.357-7.5-7.5-7.5s-7.5 3.357-7.5 7.5z"/><path d="m139.151 202.602v13.042c0 4.143 3.357 7.5 7.5 7.5s7.5-3.357 7.5-7.5v-13.042c0-4.143-3.357-7.5-7.5-7.5s-7.5 3.357-7.5 7.5z"/><path d="m188.204 202.602v13.042c0 4.143 3.357 7.5 7.5 7.5s7.5-3.357 7.5-7.5v-13.042c0-4.143-3.357-7.5-7.5-7.5s-7.5 3.357-7.5 7.5z"/><path d="m440.058 177.276c0-4.143-3.357-7.5-7.5-7.5h-134.416c-4.143 0-7.5 3.357-7.5 7.5s3.357 7.5 7.5 7.5h134.416c4.142 0 7.5-3.357 7.5-7.5z"/><path d="m308.797 202.602v13.042c0 4.143 3.357 7.5 7.5 7.5s7.5-3.357 7.5-7.5v-13.042c0-4.143-3.357-7.5-7.5-7.5s-7.5 3.357-7.5 7.5z"/><path d="m357.85 202.602v13.042c0 4.143 3.357 7.5 7.5 7.5s7.5-3.357 7.5-7.5v-13.042c0-4.143-3.357-7.5-7.5-7.5s-7.5 3.357-7.5 7.5z"/><path d="m406.902 202.602v13.042c0 4.143 3.357 7.5 7.5 7.5s7.5-3.357 7.5-7.5v-13.042c0-4.143-3.357-7.5-7.5-7.5s-7.5 3.357-7.5 7.5z"/><path d="m504.5 143.521c4.143 0 7.5-3.357 7.5-7.5v-43.01c0-4.143-3.357-7.5-7.5-7.5h-141.506c-4.143 0-7.5 3.357-7.5 7.5s3.357 7.5 7.5 7.5h2.558v28.01h-31.822v-28.046c3.803-.364 6.776-3.565 6.776-7.464 0-4.143-3.357-7.5-7.5-7.5h-325.506c-4.143 0-7.5 3.357-7.5 7.5v43.01c0 4.143 3.357 7.5 7.5 7.5h13.908v41.038c0 4.143 3.357 7.5 7.5 7.5s7.5-3.357 7.5-7.5v-41.038h439.184v267.969h-20.268v-38.324-27.077c0-4.143-3.357-7.5-7.5-7.5s-7.5 3.357-7.5 7.5v19.577h-18.655v-38.323c0-4.143-3.357-7.5-7.5-7.5h-67.31c-4.143 0-7.5 3.357-7.5 7.5v38.323h-26.155c-4.143 0-7.5 3.357-7.5 7.5v38.324h-15.329v-119.45h149.949v24.062c0 4.143 3.357 7.5 7.5 7.5s7.5-3.357 7.5-7.5v-53.46c0-8.878-7.223-16.102-16.101-16.102h-147.747c-8.878 0-16.101 7.224-16.101 16.102v148.848h-38.749v-148.848c0-8.878-7.224-16.102-16.102-16.102h-147.747c-8.878 0-16.101 7.224-16.101 16.102v148.848h-20.268v-196.945c0-4.143-3.357-7.5-7.5-7.5s-7.5 3.357-7.5 7.5v196.944h-13.908c-4.143 0-7.5 3.357-7.5 7.5s3.357 7.5 7.5 7.5h497c4.143 0 7.5-3.357 7.5-7.5s-3.357-7.5-7.5-7.5h-13.908v-267.968zm-213.024 118.019h147.748c.606 0 1.101.494 1.101 1.102v14.398h-149.95v-14.398c0-.608.494-1.102 1.101-1.102zm-218.699 0h147.747c.607 0 1.102.494 1.102 1.102v14.398h-149.949v-14.398c0-.608.494-1.102 1.1-1.102zm-1.1 149.949v-119.449h149.949v119.449zm282.682-76.647h18.654v.364c0 4.143 3.357 7.5 7.5 7.5s7.5-3.357 7.5-7.5v-.364h18.655v30.823h-26.155-26.154zm-33.655 45.823h18.655v.365c0 4.143 3.357 7.5 7.5 7.5s7.5-3.357 7.5-7.5v-.365h18.654v30.824h-52.31v-30.824zm67.31 30.824v-30.824h18.655v.365c0 4.143 3.357 7.5 7.5 7.5s7.5-3.357 7.5-7.5v-.365h18.655v30.824zm71.178-310.978v28.01h-31.82v-28.01zm-78.64 0h31.82v28.01h-31.82zm-280.923 0h31.82v28.01h-31.82zm-15 28.01h-31.82v-28.01h31.82zm61.82-28.01h31.82v28.01h-31.82zm46.821 0h31.82v28.01h-31.82zm46.82 0h31.82v28.01h-31.82zm46.82 0h31.82v28.01h-31.82zm-271.91 28.01v-28.01h22.809v28.01zm459.192 0v-28.01h22.808v28.01z"/></g></svg>