<svg id="Capa_1" enable-background="new 0 0 512 512" height="512" viewBox="0 0 512 512" width="512" xmlns="http://www.w3.org/2000/svg"><g><path d="m215.918 410.686c4.143 0 7.5-3.357 7.5-7.5s-3.357-7.5-7.5-7.5h-3.827c-4.143 0-7.5 3.357-7.5 7.5s3.357 7.5 7.5 7.5z"/><path d="m299.91 395.686h-3.827c-4.143 0-7.5 3.357-7.5 7.5s3.357 7.5 7.5 7.5h3.827c4.143 0 7.5-3.357 7.5-7.5s-3.358-7.5-7.5-7.5z"/><path d="m296.083 469.729h-80.164c-4.143 0-7.5 3.357-7.5 7.5s3.357 7.5 7.5 7.5h80.164c4.143 0 7.5-3.357 7.5-7.5s-3.358-7.5-7.5-7.5z"/><path d="m272.556 93.52c4.143 0 7.5-3.357 7.5-7.5s-3.357-7.5-7.5-7.5h-33.112c-4.143 0-7.5 3.357-7.5 7.5s3.357 7.5 7.5 7.5z"/><path d="m192.35 180.452c-8.583 0-15.566 6.983-15.566 15.566v19.184c0 8.583 6.983 15.566 15.566 15.566h127.3c8.584 0 15.567-6.983 15.567-15.566v-19.184c0-8.583-6.983-15.566-15.567-15.566zm127.867 15.567v19.184c0 .312-.255.566-.567.566h-127.3c-.312 0-.566-.254-.566-.566v-19.184c0-.312.254-.566.566-.566h127.3c.312-.001.567.253.567.566z"/><path d="m337.802 282.281c4.48-5.314 8.484-11.102 11.915-17.326 2-3.627.682-8.188-2.946-10.188-3.627-2.002-8.189-.682-10.188 2.946-16.381 29.708-47.477 47.629-80.582 47.629-50.705 0-91.957-41.252-91.957-91.957v-53.313h183.913v53.313c0 6.158-.614 12.319-1.825 18.312-.82 4.06 1.806 8.017 5.866 8.837 4.057.819 8.016-1.807 8.837-5.866 1.408-6.969 2.122-14.129 2.122-21.283v-54.353c6.675-2.407 11.468-8.786 11.468-16.281v-14.43c0-9.551-7.77-17.32-17.32-17.32h-7.316v-2.556c0-34.732-18.977-65.114-47.107-81.324l.642-1.05c2.162-3.534 1.05-8.15-2.483-10.312-3.532-2.163-8.149-1.05-10.312 2.483l-1.486 2.43c-8.049-3.04-16.621-5.006-25.542-5.715v-7.457c0-4.143-3.357-7.5-7.5-7.5s-7.5 3.357-7.5 7.5v7.461c-8.783.709-17.375 2.658-25.53 5.731l-1.498-2.449c-2.161-3.533-6.777-4.645-10.312-2.483-3.533 2.161-4.646 6.777-2.483 10.312l.644 1.052c-8.393 4.813-16.073 10.933-22.699 18.215-2.788 3.063-2.564 7.807.499 10.595 3.063 2.786 7.807 2.564 10.595-.499 5.686-6.247 12.298-11.47 19.524-15.551 1.452 1.714 3.56 2.653 5.719 2.653 1.334 0 2.686-.356 3.907-1.104 2.63-1.609 3.916-4.578 3.511-7.448 5.839-2.013 11.918-3.352 18.124-3.949v4.667c0 4.143 3.357 7.5 7.5 7.5s7.5-3.357 7.5-7.5v-4.678c6.287.597 12.354 1.944 18.126 3.936-.416 2.878.871 5.859 3.508 7.473 1.222.748 2.572 1.104 3.907 1.104 2.156 0 4.261-.937 5.713-2.646 23.877 13.552 40.033 39.195 40.033 68.557v2.556h-157.577v-2.556c0-10.304 1.974-20.345 5.867-29.846 1.57-3.833-.264-8.213-4.097-9.784-3.832-1.568-8.214.264-9.784 4.097-4.636 11.314-6.986 23.27-6.986 35.533v2.556h-7.316c-9.551 0-17.321 7.77-17.321 17.32v14.43c0 7.495 4.794 13.874 11.469 16.281v54.353c0 26.215 9.485 50.252 25.197 68.874-24.388 12.598-40.136 37.872-40.136 65.947v77.957c0 4.143 3.357 7.5 7.5 7.5s7.5-3.357 7.5-7.5v-77.957c0-22.085 12.214-42 31.206-52.191v200.986h-28.174c-1.672 0-3.032-1.36-3.032-3.032v-37.819c0-4.143-3.357-7.5-7.5-7.5s-7.5 3.357-7.5 7.5v37.819c0 9.943 8.089 18.032 18.032 18.032h207.728c9.943 0 18.032-8.089 18.032-18.032v-145.768c-.001-28.058-15.73-53.32-40.095-65.924zm-185.227-153.96c0-1.279 1.041-2.32 2.321-2.32h202.208c1.279 0 2.32 1.041 2.32 2.32v14.43c0 1.279-1.041 2.32-2.32 2.32-9.905 0-192.549 0-202.208 0-1.28 0-2.321-1.041-2.321-2.32zm68.347 241.99v-55.884c2.534.882 5.11 1.672 7.726 2.365v12.601c0 15.082 12.271 27.353 27.353 27.353s27.352-12.271 27.352-27.353v-12.621c2.609-.691 5.188-1.469 7.727-2.351v55.89zm-25.612-68.907c3.401 2.352 6.943 4.512 10.612 6.465v62.441h-10.612zm110.769 6.466c3.656-1.939 7.202-4.081 10.611-6.43v68.871h-10.611zm-37.727 11.742v9.78c0 6.812-5.541 12.353-12.352 12.353-6.812 0-12.353-5.541-12.353-12.353v-9.768c4.054.469 8.175.718 12.353.718 4.159 0 8.28-.256 12.352-.73zm-73.042 177.388v-111.689h121.38v111.689zm167.586-3.032c0 1.672-1.36 3.032-3.032 3.032h-28.174c0-6.808 0-191.572 0-200.986 18.993 10.191 31.206 30.105 31.206 52.191z"/></g></svg>