<svg id="Capa_1" enable-background="new 0 0 512 512" height="512" viewBox="0 0 512 512" width="512" xmlns="http://www.w3.org/2000/svg"><g><path d="m491.57 448.032h-3.67v-215.936c0-4.143-3.357-7.5-7.5-7.5s-7.5 3.357-7.5 7.5v215.936h-41.768c0-31.532 0-251.468 0-285.605 0-4.008 3.26-7.268 7.268-7.268h27.232c4.008 0 7.268 3.26 7.268 7.268v39.683c0 4.143 3.357 7.5 7.5 7.5s7.5-3.357 7.5-7.5v-39.683c0-12.278-9.989-22.268-22.268-22.268h-6.116v-8.822c0-8.816 7.172-15.989 15.988-15.989h28.996c4.143 0 7.5-3.357 7.5-7.5s-3.357-7.5-7.5-7.5h-28.995c-17.087 0-30.988 13.901-30.988 30.989v8.822h-6.117c-12.278 0-22.268 9.989-22.268 22.268v31.551h-60.802v-95.023c0-1.148-.049-2.334-.152-3.73-.309-4.131-3.917-7.232-8.036-6.923-4.131.308-7.23 3.906-6.923 8.036.076 1.019.111 1.85.111 2.617v349.077h-21.792v-98.133c0-17.202-13.995-31.197-31.197-31.197h-20.277v-167.46c0-17.087-13.901-30.988-30.988-30.988h-50.531v-21.299c0-19.011 15.466-34.477 34.477-34.477h85.833c8.895 0 17.343 3.388 23.788 9.538 2.996 2.859 7.743 2.747 10.604-.248 2.859-2.997 2.749-7.744-.248-10.604-8.069-7.7-18.328-12.379-29.292-13.449v-18.44c0-8.642-7.03-15.672-15.672-15.672h-64.192c-8.642 0-15.673 7.03-15.673 15.672v18.443c-25.012 2.447-44.624 23.592-44.624 49.236v21.299h-41.546c-17.087 0-30.988 13.901-30.988 30.988v38.129h-11.906v-38.129c0-17.087-13.901-30.988-30.989-30.988h-47.617c-4.143 0-7.5 3.357-7.5 7.5s3.357 7.5 7.5 7.5h47.617c8.816 0 15.989 7.172 15.989 15.988v38.129h-2.474c-21.255 0-38.547 17.292-38.547 38.547v220.114h-9.655c-11.265 0-20.43 9.165-20.43 20.43v20.435c0 4.143 3.357 7.5 7.5 7.5h41.119c4.143 0 7.5-3.357 7.5-7.5s-3.357-7.5-7.5-7.5h-33.619v-12.935c0-2.994 2.436-5.43 5.43-5.43h471.141c2.994 0 5.43 2.436 5.43 5.43v12.935h-418.395c-4.143 0-7.5 3.357-7.5 7.5s3.357 7.5 7.5 7.5h425.894c4.143 0 7.5-3.357 7.5-7.5v-20.435c0-11.264-9.165-20.429-20.43-20.429zm-261.402-416.756c0-.37.302-.672.673-.672h64.192c.37 0 .672.302.672.672v18.202h-65.537zm-101.168 103.977h41.544v312.778h-19.072v-220.114c0-21.226-17.245-38.497-38.46-38.545v-38.131c0-8.816 7.172-15.988 15.988-15.988zm-83.914 312.779v-220.115c0-12.983 10.563-23.547 23.547-23.547h44.292c12.983 0 23.547 10.563 23.547 23.547v220.114h-91.386zm140.458-312.779h50.531c8.816 0 15.988 7.172 15.988 15.988v167.46h-20.276c-17.203 0-31.198 13.995-31.198 31.197v98.133h-15.045zm30.045 312.779v-98.133c0-8.932 7.267-16.197 16.198-16.197h55.554c8.932 0 16.197 7.266 16.197 16.197v98.133zm139.741-209.566h60.803v26.14h-60.803zm0 41.14h60.803v14.489h-60.803zm60.803-70.629v14.489h-60.803v-14.489zm-60.803 100.118h60.803v138.937h-60.803z"/></g></svg>