<svg id="Capa_1" enable-background="new 0 0 512.001 512.001" height="512" viewBox="0 0 512.001 512.001" width="512" xmlns="http://www.w3.org/2000/svg"><g><path d="m135.295 267.269v-11.007c0-4.142-3.357-7.5-7.5-7.5s-7.5 3.358-7.5 7.5v11.007c0 4.142 3.357 7.5 7.5 7.5s7.5-3.358 7.5-7.5z"/><path d="m186.577 267.269v-11.007c0-4.142-3.357-7.5-7.5-7.5s-7.5 3.358-7.5 7.5v11.007c0 4.142 3.357 7.5 7.5 7.5s7.5-3.358 7.5-7.5z"/><path d="m237.859 267.269v-11.007c0-4.142-3.357-7.5-7.5-7.5s-7.5 3.358-7.5 7.5v11.007c0 4.142 3.357 7.5 7.5 7.5s7.5-3.358 7.5-7.5z"/><path d="m289.142 267.269v-11.007c0-4.142-3.357-7.5-7.5-7.5s-7.5 3.358-7.5 7.5v11.007c0 4.142 3.357 7.5 7.5 7.5s7.5-3.358 7.5-7.5z"/><path d="m340.424 267.269v-11.007c0-4.142-3.357-7.5-7.5-7.5s-7.5 3.358-7.5 7.5v11.007c0 4.142 3.357 7.5 7.5 7.5s7.5-3.358 7.5-7.5z"/><path d="m391.705 267.269v-11.007c0-4.142-3.357-7.5-7.5-7.5s-7.5 3.358-7.5 7.5v11.007c0 4.142 3.357 7.5 7.5 7.5s7.5-3.358 7.5-7.5z"/><path d="m307.405 148.052c-4.143 0-7.5 3.358-7.5 7.5v3.662c0 4.142 3.357 7.5 7.5 7.5s7.5-3.358 7.5-7.5v-3.662c0-4.142-3.357-7.5-7.5-7.5z"/><path d="m339.882 148.052c-4.143 0-7.5 3.358-7.5 7.5v3.662c0 4.142 3.357 7.5 7.5 7.5s7.5-3.358 7.5-7.5v-3.662c0-4.142-3.358-7.5-7.5-7.5z"/><path d="m504.5 481.303c-18.276 0-26.96-6.29-37.016-13.574-10.629-7.699-22.677-16.426-45.815-16.426-2.596 0-5.045.115-7.375.321v-62.918h48.342c4.143 0 7.5-3.357 7.5-7.5v-52.289c0-4.143-3.357-7.5-7.5-7.5h-5.431v-9.535c0-4.143-3.357-7.5-7.5-7.5s-7.5 3.357-7.5 7.5v9.535h-11.44v-82.578c0-11.367-9.248-20.615-20.615-20.615h-52.53v-15.263h36.585c2.594 0 5.004-1.341 6.372-3.545s1.5-4.958.349-7.283l-17.89-36.128 91.674-79.397v74.753c0 4.142 3.357 7.5 7.5 7.5s7.5-3.358 7.5-7.5v-87.744l19.701-17.063c2.78-2.408 3.404-6.478 1.473-9.608s-5.846-4.397-9.248-2.993l-97.467 40.287c-3.828 1.582-5.648 5.968-4.066 9.796 1.583 3.828 5.967 5.649 9.797 4.066l54.762-22.635-88.502 76.65-9.318-18.819c-1.265-2.555-3.869-4.172-6.721-4.172h-25.277l47.101-19.469c3.828-1.582 5.648-5.968 4.066-9.796s-5.964-5.647-9.797-4.066l-80.637 33.332h-18.935c-4.143 0-7.5 3.358-7.5 7.5v68.834 22.763h-32.269l-24.469-172.87c-.523-3.699-3.689-6.449-7.426-6.449h-9.939v-15.706c0-4.142-3.357-7.5-7.5-7.5s-7.5 3.358-7.5 7.5v15.706h-9.939c-3.736 0-6.902 2.75-7.426 6.449l-24.469 172.87h-36.353c-11.367 0-20.615 9.248-20.615 20.615v21.624c0 4.142 3.357 7.5 7.5 7.5s7.5-3.358 7.5-7.5v-21.624c0-3.096 2.519-5.615 5.615-5.615h308.298c3.097 0 5.615 2.519 5.615 5.615v82.578h-104.977v-22.534c0-6.361-5.176-11.537-11.537-11.537h-86.501c-6.361 0-11.537 5.176-11.537 11.537v22.534h-104.977v-30.968c0-4.143-3.357-7.5-7.5-7.5s-7.5 3.357-7.5 7.5v30.968h-11.44v-9.535c0-4.143-3.357-7.5-7.5-7.5s-7.5 3.357-7.5 7.5v9.535h-5.431c-4.143 0-7.5 3.357-7.5 7.5v52.289c0 4.143 3.357 7.5 7.5 7.5h48.342v62.917c-2.329-.206-4.776-.321-7.37-.321-23.14 0-35.188 8.727-45.817 16.426-10.056 7.284-18.741 13.574-37.02 13.574-4.143 0-7.5 3.357-7.5 7.5s3.357 7.5 7.5 7.5c23.141 0 35.188-8.727 45.818-16.426 10.056-7.284 18.74-13.574 37.019-13.574s26.964 6.29 37.02 13.574c10.338 7.488 22.022 15.945 43.943 16.404 22.114.462 34.05-6.522 47.691-16.404 10.056-7.284 18.739-13.574 37.017-13.574 18.276 0 26.96 6.29 37.016 13.574 10.629 7.699 22.677 16.426 45.815 16.426 20.534 0 31.916-6.357 45.815-16.426 10.056-7.284 18.739-13.574 37.016-13.574s26.961 6.29 37.017 13.574c10.629 7.699 22.676 16.426 45.814 16.426 4.143 0 7.5-3.357 7.5-7.5s-3.358-7.499-7.501-7.499zm-220.358-347.177h12.9c.009 0 .018.002.026.002.013 0 .027-.002.04-.002h58.356l26.657 53.834c-11.651 0-87.142 0-97.98 0v-53.834zm-113.213-40.068 29.822 23.372-36.328 22.592zm28.582-32.762 5.748 40.609-27.337-21.424zm9.701 68.536 6.67 47.125-44.659-23.5zm-23.966-75.927-9.876 8.776 1.242-8.776zm-24.354 111.065 49.8 26.206-33.657 27.047h-23.681zm40.09 53.254 18.623-14.966 2.118 14.966zm83.16 0v-15.263h58.479v15.263zm-67.929 84.122h79.575v19.071h-79.575zm-159.348 34.071h398.271v37.289c-70.751 0-348.746 0-398.271 0zm175.343 64.198c-.644 0-1.167-.523-1.167-1.167v-10.742h49.919v10.742c0 .644-.523 1.167-1.167 1.167zm-119.501 54.024v-65.933h51.105v91.965c-12.229-1.768-19.491-7.027-27.657-12.942-6.531-4.731-13.602-9.846-23.448-13.09zm97.484 13.089c-8.958 6.489-16.846 12.176-31.379 13.343v-92.366h37.229v10.742c0 8.914 7.253 16.167 16.167 16.167h16.292v36.02c-18.361 1.655-28.895 9.275-38.309 16.094zm165.663 0c-8.168 5.917-15.431 11.178-27.666 12.944v-30.681c0-4.143-3.357-7.5-7.5-7.5s-7.5 3.357-7.5 7.5v31.08c-14.525-1.169-22.411-6.855-31.367-13.343-9.417-6.821-19.952-14.443-38.321-16.094v-36.019h16.293c8.914 0 16.167-7.253 16.167-16.167v-10.742h37.229v31.298c0 4.143 3.357 7.5 7.5 7.5s7.5-3.357 7.5-7.5v-31.298h51.105v65.935c-9.841 3.244-16.91 8.358-23.44 13.087z"/><path d="m138.26 406.919c-4.143 0-7.5 3.357-7.5 7.5v31.882c0 4.143 3.357 7.5 7.5 7.5s7.5-3.357 7.5-7.5v-31.882c0-4.143-3.358-7.5-7.5-7.5z"/><path d="m373.741 406.919c-4.143 0-7.5 3.357-7.5 7.5v31.882c0 4.143 3.357 7.5 7.5 7.5s7.5-3.357 7.5-7.5v-31.882c0-4.143-3.357-7.5-7.5-7.5z"/></g></svg>