<svg id="Capa_1" enable-background="new 0 0 512.921 512.921" height="512" viewBox="0 0 512.921 512.921" width="512" xmlns="http://www.w3.org/2000/svg"><g><path d="m177.217 127.383c4.142 0 7.5-3.357 7.5-7.5v-9.521c0-4.143-3.358-7.5-7.5-7.5s-7.5 3.357-7.5 7.5v9.521c0 4.143 3.358 7.5 7.5 7.5z"/><path d="m259.888 137.105c-2.93-2.928-7.677-2.929-10.607.001l-6.733 6.733c-2.929 2.929-2.928 7.678 0 10.606 2.93 2.928 7.677 2.929 10.607-.001l6.732-6.733c2.93-2.929 2.93-7.678.001-10.606z"/><path d="m286.631 227.277c4.143 0 7.5-3.357 7.5-7.5s-3.357-7.5-7.5-7.5h-9.521c-4.143 0-7.5 3.357-7.5 7.5s3.357 7.5 7.5 7.5z"/><path d="m253.155 285.108c-2.93-2.928-7.677-2.929-10.607.001-2.929 2.929-2.928 7.678 0 10.606l6.733 6.732c1.465 1.464 3.384 2.196 5.303 2.196s3.839-.732 5.303-2.197c2.929-2.929 2.929-7.678 0-10.606z"/><path d="m184.717 319.67c0-4.143-3.358-7.5-7.5-7.5s-7.5 3.357-7.5 7.5v9.521c0 4.143 3.358 7.5 7.5 7.5s7.5-3.357 7.5-7.5z"/><path d="m94.546 302.448c1.464 1.464 3.384 2.196 5.303 2.196s3.839-.732 5.303-2.196l6.732-6.732c2.929-2.93 2.929-7.678 0-10.607-2.929-2.928-7.678-2.928-10.606 0l-6.732 6.732c-2.929 2.929-2.929 7.677 0 10.607z"/><path d="m67.803 212.277c-4.142 0-7.5 3.357-7.5 7.5s3.358 7.5 7.5 7.5h9.521c4.142 0 7.5-3.357 7.5-7.5s-3.358-7.5-7.5-7.5z"/><path d="m111.885 154.446c2.929-2.929 2.93-7.678.001-10.606l-6.732-6.733c-2.928-2.93-7.677-2.929-10.606-.001-2.929 2.929-2.93 7.678-.001 10.606l6.732 6.733c2.928 2.929 7.676 2.929 10.606.001z"/><path d="m508.426 350.083-13.831-6.047-7.003-16.906 5.504-14.057c1.087-2.775.428-5.931-1.681-8.038l-16.562-16.561c-2.105-2.105-5.259-2.767-8.037-1.68l-14.056 5.504-16.906-7.003-6.048-13.832c-1.194-2.73-3.892-4.495-6.872-4.495h-23.421c-2.98 0-5.678 1.765-6.872 4.495l-6.047 13.832-16.906 7.003-14.056-5.504c-2.776-1.086-5.931-.427-8.037 1.68l-16.562 16.561c-2.108 2.107-2.768 5.263-1.681 8.038l5.504 14.057-7.003 16.906-13.832 6.047c-2.73 1.194-4.495 3.892-4.495 6.872v23.421c0 2.98 1.765 5.678 4.495 6.872l13.832 6.047 7.003 16.906-5.504 14.057c-1.087 2.775-.428 5.931 1.68 8.038l16.562 16.562c2.107 2.105 5.261 2.768 8.038 1.68l14.056-5.504 16.906 7.002 6.047 13.832c1.194 2.73 3.892 4.495 6.872 4.495h23.421c2.98 0 5.678-1.765 6.872-4.495l6.048-13.831 16.906-7.003 14.056 5.504c2.778 1.088 5.932.426 8.038-1.68l16.562-16.562c2.107-2.107 2.767-5.263 1.68-8.038l-5.504-14.057 7.003-16.906 13.831-6.047c2.73-1.194 4.495-3.892 4.495-6.872v-23.421c0-2.98-1.764-5.677-4.495-6.872zm-10.505 25.387-12.104 5.292c-1.776.776-3.183 2.211-3.924 4.002l-9.314 22.488c-.742 1.791-.762 3.8-.055 5.604l4.816 12.302-9.623 9.623-12.301-4.816c-1.803-.707-3.814-.688-5.604.055l-22.488 9.314c-1.791.741-3.225 2.147-4.002 3.924l-5.293 12.104h-13.609l-5.292-12.104c-.776-1.776-2.211-3.183-4.002-3.924l-22.488-9.314c-1.793-.743-3.802-.762-5.604-.055l-12.301 4.816-9.623-9.623 4.816-12.302c.707-1.805.688-3.813-.055-5.604l-9.315-22.488c-.741-1.791-2.148-3.226-3.924-4.002l-12.104-5.292v-13.608l12.104-5.292c1.775-.776 3.183-2.211 3.924-4.002l9.315-22.488c.742-1.791.762-3.8.055-5.604l-4.816-12.302 9.623-9.622 12.301 4.816c1.803.707 3.813.688 5.604-.055l22.488-9.315c1.791-.741 3.226-2.148 4.002-3.924l5.292-12.104h13.608l5.293 12.104c.777 1.776 2.211 3.183 4.002 3.924l22.488 9.315c1.789.742 3.8.762 5.604.055l12.301-4.816 9.623 9.622-4.816 12.302c-.707 1.805-.688 3.813.055 5.604l9.314 22.488c.741 1.791 2.147 3.226 3.924 4.002l12.104 5.292v13.608z"/><path d="m411.225 336.48c13.136 0 24.834 7.861 29.804 20.028 1.566 3.834 5.945 5.672 9.779 4.107 3.835-1.566 5.674-5.944 4.107-9.779-7.284-17.833-24.434-29.356-43.69-29.356-26.019 0-47.187 21.168-47.187 47.187s21.168 47.187 47.187 47.187c19.256 0 36.405-11.523 43.69-29.357 1.566-3.834-.272-8.213-4.107-9.779-3.839-1.566-8.213.272-9.779 4.107-4.97 12.167-16.669 20.029-29.804 20.029-17.748 0-32.187-14.438-32.187-32.187s14.439-32.187 32.187-32.187z"/><path d="m177.217 298.781c43.563 0 79.004-35.441 79.004-79.005 0-37.04-26.262-69.529-62.446-77.252-4.052-.865-8.036 1.719-8.9 5.77s1.719 8.036 5.77 8.9c29.306 6.255 50.577 32.574 50.577 62.582 0 35.292-28.712 64.005-64.004 64.005s-64.005-28.713-64.005-64.005c0-30.008 21.271-56.327 50.577-62.582 4.051-.864 6.634-4.85 5.77-8.9-.865-4.052-4.852-6.634-8.9-5.77-36.184 7.723-62.446 40.212-62.446 77.252-.002 43.564 35.44 79.005 79.003 79.005z"/><path d="m319.128 322.131-10.8-27.581 14.471-34.937 27.14-11.865c2.73-1.194 4.495-3.892 4.495-6.872v-42.199c0-2.98-1.765-5.678-4.495-6.872l-27.14-11.865-14.471-34.937 10.8-27.581c1.087-2.775.428-5.931-1.68-8.038l-29.838-29.839c-2.107-2.105-5.263-2.765-8.038-1.68l-27.582 10.8-34.935-14.471-11.866-27.141c-1.194-2.73-3.892-4.495-6.872-4.495h-42.199c-2.98 0-5.678 1.765-6.872 4.495l-11.866 27.141-34.935 14.471-27.582-10.8c-2.775-1.087-5.93-.427-8.038 1.68l-29.839 29.839c-2.107 2.107-2.767 5.263-1.681 8.038l10.8 27.581-14.47 34.937-27.139 11.865c-2.731 1.194-4.496 3.892-4.496 6.872v42.199c0 2.98 1.765 5.678 4.496 6.872l27.139 11.865 14.471 34.937-10.8 27.581c-1.086 2.775-.427 5.931 1.681 8.038l29.839 29.839c2.106 2.106 5.263 2.766 8.038 1.68l27.582-10.8 34.935 14.471 11.866 27.14c1.194 2.73 3.892 4.495 6.872 4.495h6.106c4.142 0 7.5-3.357 7.5-7.5s-3.358-7.5-7.5-7.5h-1.2l-11.111-25.412c-.777-1.776-2.211-3.183-4.002-3.924l-40.518-16.783c-1.791-.743-3.8-.763-5.604-.055l-25.826 10.112-22.9-22.9 10.113-25.826c.707-1.805.687-3.813-.055-5.604l-16.783-40.519c-.742-1.791-2.148-3.226-3.925-4.002l-25.414-11.111v-32.387l25.412-11.11c1.776-.776 3.183-2.211 3.925-4.002l16.783-40.519c.742-1.791.761-3.8.055-5.604l-10.113-25.826 22.9-22.9 25.826 10.112c1.805.708 3.814.688 5.604-.055l40.518-16.783c1.791-.741 3.225-2.148 4.002-3.924l11.111-25.413h32.386l11.111 25.413c.777 1.775 2.211 3.183 4.002 3.924l40.518 16.783c1.791.743 3.799.763 5.604.055l25.827-10.112 22.9 22.9-10.112 25.826c-.707 1.805-.688 3.813.055 5.604l16.783 40.519c.741 1.791 2.148 3.226 3.924 4.002l25.412 11.11v32.387l-25.412 11.11c-1.775.776-3.183 2.211-3.924 4.002l-16.783 40.519c-.742 1.791-.762 3.8-.055 5.604l10.112 25.826-22.9 22.9-25.827-10.112c-1.805-.708-3.813-.688-5.604.055l-40.518 16.783c-1.791.741-3.225 2.147-4.002 3.924l-11.111 25.412h-1.2c-4.142 0-7.5 3.357-7.5 7.5s3.358 7.5 7.5 7.5h6.106c2.98 0 5.678-1.765 6.872-4.495l11.867-27.14 34.935-14.471 27.582 10.8c2.775 1.088 5.931.427 8.038-1.68l29.839-29.839c2.108-2.106 2.767-5.262 1.68-8.037z"/></g></svg>