<svg id="Capa_1" enable-background="new 0 0 512 512" height="512" viewBox="0 0 512 512" width="512" xmlns="http://www.w3.org/2000/svg"><g><path d="m137.146 175.37c-1.119 9.825.908 19.554 5.86 28.133 7.291 12.627 20.037 19.767 24.421 19.767 2.893 0 5.649-1.685 6.879-4.505l8.481-19.458 8.481 19.458c1.23 2.821 3.986 4.505 6.879 4.505 4.398 0 17.135-7.148 24.421-19.767 4.953-8.578 6.979-18.307 5.86-28.133-.468-4.112-4.183-7.084-8.294-6.604l-21.041 2.379 12.56-17.006c2.459-3.33 1.756-8.023-1.572-10.485-7.95-5.882-17.388-8.99-27.293-8.99-9.907 0-19.345 3.109-27.295 8.991-3.327 2.463-4.031 7.155-1.571 10.485l12.56 17.005-21.041-2.379c-4.117-.474-7.827 2.492-8.295 6.604zm72.432 20.633c-2.054 3.559-4.736 6.615-7.919 9.06l-7.939-18.215 19.744-2.231c-.525 3.977-1.832 7.828-3.886 11.386zm-26.79-46.339c4.109 0 8.097.794 11.804 2.328l-11.805 15.982-11.805-15.982c3.708-1.534 7.696-2.328 11.806-2.328zm-10.934 37.184-7.938 18.215c-3.183-2.444-5.865-5.502-7.919-9.06-2.054-3.559-3.361-7.409-3.886-11.387z"/><path d="m504.5 422.392h-11.138v-20.198c0-4.143-3.357-7.5-7.5-7.5s-7.5 3.357-7.5 7.5v20.198h-21.676v-29.486c0-4.143-3.357-7.5-7.5-7.5h-36.986c-4.143 0-7.5 3.357-7.5 7.5v29.486h-21.676v-70.383h95.338v20.198c0 4.143 3.357 7.5 7.5 7.5s7.5-3.357 7.5-7.5v-22.192c0-7.172-5.834-13.006-13.006-13.006h-60.656v-13.942c0-10.799-8.785-19.584-19.584-19.584h-53.18v-106.708c0-2.392-1.141-4.64-3.07-6.052l-156.648-114.665c-2.638-1.932-6.222-1.932-8.86 0l-51.681 37.83c-3.343 2.446-4.069 7.14-1.622 10.481 2.446 3.343 7.141 4.068 10.482 1.622l47.251-34.587 149.149 109.176v221.812h-13.15v-166.391c0-4.143-3.357-7.5-7.5-7.5h-256.999c-4.142 0-7.5 3.357-7.5 7.5v166.391h-13.15v-221.812l77.414-56.666c3.342-2.446 4.068-7.14 1.622-10.481-2.446-3.343-7.14-4.068-10.482-1.622l-80.483 58.913c-1.93 1.412-3.07 3.66-3.07 6.052v225.616h-11.139c-4.142 0-7.5 3.357-7.5 7.5s3.358 7.5 7.5 7.5h497c4.143 0 7.5-3.357 7.5-7.5s-3.357-7.5-7.5-7.5zm-302.02-99.326v25.177h-31.347c-4.142 0-7.5 3.357-7.5 7.5s3.358 7.5 7.5 7.5h81.028c8.702 0 15.782 7.079 15.782 15.781s-7.08 15.781-15.782 15.781h-84.361c-8.702 0-15.781-7.079-15.781-15.781 0-1.693.271-3.369.807-4.981 1.306-3.931-.822-8.176-4.753-9.481-3.934-1.31-8.176.821-9.482 4.753-1.043 3.14-1.572 6.406-1.572 9.71 0 15.275 11.186 27.981 25.795 30.372v12.996h-66.329v-76.944c0-10.799-8.786-19.585-19.584-19.585h-15.113v-16.93h108.915c10.799 0 19.584-8.786 19.584-19.585v-25.847h62.846v9.109c0 10.799 8.786 19.584 19.585 19.584h31.068v11.288h-81.722c-10.798-.001-19.584 8.785-19.584 19.583zm-24.666 86.74h61.644v12.586h-61.644zm125.973-132.612h-31.068c-2.528 0-4.585-2.057-4.585-4.584v-9.109h35.653zm-128.5-13.693v25.847c0 2.528-2.057 4.585-4.584 4.585h-108.915v-30.432zm-113.499 77.361h15.113c2.528 0 4.584 2.057 4.584 4.585v76.944h-19.697zm192.67 81.53v-12.681c15.904-1.18 28.485-14.487 28.485-30.687 0-16.973-13.809-30.781-30.782-30.781h-34.681v-25.177c0-2.527 2.057-4.584 4.584-4.584h81.722v103.909h-49.328zm92.479-103.91h53.18c2.527 0 4.584 2.057 4.584 4.584v13.942h-23.67c-7.172 0-13.006 5.834-13.006 13.006v72.377h-21.088zm72.764 103.91v-21.986h21.986v21.986z"/></g></svg>