<svg id="Capa_1" enable-background="new 0 0 512.001 512.001" height="512" viewBox="0 0 512.001 512.001" width="512" xmlns="http://www.w3.org/2000/svg"><g><path d="m421.157.153c-4.05-.827-8.02 1.789-8.85 5.848l-28.877 141.343c-4.808-6.899-14.445-20.725-21.387-30.686-6.486-8.572-8.922-15.029-17.605-20.774l10.085-87.524c.474-4.115-2.478-7.835-6.593-8.31-4.118-.476-7.834 2.478-8.31 6.593l-9.639 83.648c-4.093-.636 3.835-.447-107.564-.447-4.143 0-7.5 3.357-7.5 7.5s3.357 7.5 7.5 7.5h22.281l-99.431 99.431-10.344-19.891c-3.72-7.154-3.025-15.636 1.424-22.021l33.73-48.395c7.875-11.334 20.539-8.781 22.353-9.124 4.143 0 7.5-3.357 7.5-7.5s-3.357-7.5-7.5-7.5c-3.846.072-6.143-.218-10.411.44l-9.638-83.642c-.475-4.116-4.217-7.065-8.31-6.593-4.115.475-7.066 4.194-6.593 8.31l10.083 87.498c-9.796 6.462-10.126 11.306-38.999 51.44l-28.868-141.297c-.83-4.059-4.793-6.674-8.85-5.848-4.059.829-6.677 4.792-5.848 8.85l32.834 160.704c-.982 7.277.256 14.813 3.784 21.598 9.1 17.498 63.378 121.872 69.544 133.73-7.268.616-12.997 6.72-12.997 14.145v17.189c0 7.833 6.373 14.206 14.206 14.206h39.102v24.916c0 13.516 10.995 24.511 24.511 24.511 11.85 0 21.49 9.64 21.49 21.489s-9.641 21.488-21.49 21.488-21.488-9.64-21.488-21.488c0-7.354-3.257-14.252-8.937-18.927-5.676-4.671-13.07-6.536-20.29-5.127l-17.383 3.407c-13.263 2.601-21.938 15.507-19.338 28.769 2.196 11.207 11.754 19.14 22.667 19.759 11.07 25.724 36.409 42.63 64.769 42.63 17.434 0 34.183-6.441 47.162-18.139 3.076-2.773 3.323-7.516.55-10.593-2.775-3.077-7.516-3.321-10.593-.55-10.218 9.209-23.4 14.281-37.119 14.281-23.872 0-45.025-15.219-52.639-37.87-1.198-3.564-4.854-5.691-8.542-4.973l-.368.072c-5.148 1.011-10.159-2.358-11.167-7.504-1.009-5.146 2.357-10.153 7.504-11.162l17.379-3.407c2.802-.547 5.675.176 7.876 1.987 2.204 1.815 3.469 4.492 3.469 7.346 0 20.12 16.368 36.488 36.488 36.488 20.121 0 36.49-16.368 36.49-36.488s-16.369-36.489-36.49-36.489c-5.244 0-9.511-4.267-9.511-9.511v-24.916h19.022v10.236c0 3.361 2.236 6.312 5.474 7.221 23.861 6.698 40.527 28.681 40.527 53.459 0 6.655-1.179 13.181-3.505 19.394-1.452 3.879.516 8.201 4.396 9.653 3.878 1.451 8.201-.516 9.653-4.396 2.957-7.9 4.456-16.194 4.456-24.651 0-29.542-18.647-55.954-46.001-66.119v-4.797h39.102c7.833 0 14.206-6.373 14.206-14.206v-17.189c0-7.425-5.729-13.528-12.998-14.145l69.544-133.729c3.51-6.748 4.755-14.239 3.802-21.481l32.858-160.821c.829-4.057-1.789-8.02-5.848-8.849zm-75.012 119.93-160.957 160.957-14.657-28.185 148.011-148.012h5.866c14.458.001 19.374 12.801 21.737 15.24zm-80.233-15.239h31.415l-134.05 134.052c-.464-.892 1.423 2.736-10.752-20.664zm52.887 250.731c-27.597 0-98.071 0-125.638 0v-15.602h125.638zm58.238-171.191-73.109 140.586h-88.837l25.96-25.959c2.93-2.929 2.93-7.678.001-10.606s-7.678-2.93-10.606-.001l-27.255 27.254-10.744-20.662 162.411-162.411 12.903 18.513-116.11 116.102c-2.93 2.929-2.93 7.678-.001 10.606s7.678 2.93 10.606.001l114.178-114.171c3.778 6.328 4.039 14.144.603 20.748z"/></g></svg>