<svg id="Capa_1" enable-background="new 0 0 512.354 512.354" height="512" viewBox="0 0 512.354 512.354" width="512" xmlns="http://www.w3.org/2000/svg"><g><path d="m357.969 358.092c14.356 0 26.037-11.681 26.037-26.037 0-12.705-9.886-36.037-26.037-36.037s-26.037 23.332-26.037 36.037c0 14.357 11.68 26.037 26.037 26.037zm0-47.074c1.119 0 3.801 1.773 6.6 6.658 3.049 5.32 4.438 11.184 4.438 14.379 0 6.086-4.951 11.037-11.037 11.037s-11.037-4.951-11.037-11.037c-.001-8.462 7.235-21.037 11.036-21.037z"/><path d="m438.418 403.462c1.264 2.357 3.75 3.961 6.612 3.961 3.518 0 6.46-2.424 7.271-5.69 34.3-7.536 60.052-38.148 60.052-74.678 0-11.109-2.35-21.851-6.984-31.923-1.731-3.764-6.183-5.408-9.948-3.679-3.763 1.731-5.41 6.186-3.679 9.948 3.724 8.093 5.611 16.724 5.611 25.653 0 28.125-18.994 51.883-44.823 59.162v-118.317c8.39 2.365 16.252 6.494 22.996 12.193 3.163 2.674 7.896 2.277 10.569-.888 2.674-3.163 2.276-7.896-.888-10.569-9.532-8.056-20.858-13.602-32.906-16.257-.811-3.267-3.754-5.691-7.271-5.691-2.859 0-5.343 1.6-6.608 3.953-3.307-.111.1-.028-38.981-.056v-10.785c0-7.754-6.308-14.062-14.062-14.062h-1.953v-83.834c0-17.018-13.845-30.862-30.863-30.862h-2.858v-22.376c0-17.019-13.846-30.863-30.863-30.863h-310.988c-4.143 0-7.5 3.357-7.5 7.5s3.357 7.5 7.5 7.5h310.987c8.747 0 15.863 7.116 15.863 15.863v22.376h-206.347c-17.019 0-30.863 13.845-30.863 30.862v27.89h-19.735c-8.477 0-15.372 6.896-15.372 15.372v15.284c-12.588 4.069-23.628 12.283-31.2 23.621-2.3 3.444-1.372 8.102 2.072 10.402 3.443 2.3 8.101 1.373 10.402-2.072 8.295-12.422 22.147-19.838 37.056-19.838h48.556c24.554 0 44.529 19.976 44.529 44.529v56.966h-137.614v-56.896c.001-.062.002-.129.002-.175 0-4.143-3.357-7.5-7.5-7.5-4.105 0-7.44 3.299-7.499 7.391-.002.069-.003.158-.003.214v57.692c-2.537 1.202-4.296 3.779-4.296 6.774s1.759 5.571 4.296 6.773v85.715h-5.988c-8.382 0-15.2 6.818-15.2 15.2v10.107c0 8.381 6.818 15.199 15.2 15.199h179.589c8.381 0 15.199-6.818 15.199-15.199v-10.107c0-8.382-6.818-15.2-15.199-15.2h-5.987v-85.715c2.537-1.202 4.296-3.779 4.296-6.774s-1.759-5.571-4.296-6.774v-57.692c0-26.429-17.319-48.88-41.199-56.629v-15.298c0-8.477-6.896-15.372-15.372-15.372h-19.736v-27.89c0-8.746 7.116-15.862 15.863-15.862h206.347v99.696h-4.146c-7.754 0-14.062 6.308-14.062 14.062v10.785c-40.961.039-35.039-.065-38.977.064-1.264-2.357-3.75-3.961-6.612-3.961-3.517 0-6.46 2.424-7.271 5.69-34.3 7.536-60.052 38.148-60.052 74.678s25.753 67.141 60.052 74.678c.811 3.267 3.754 5.69 7.271 5.69 2.862 0 5.348-1.604 6.612-3.961 3.772.124 1.347.03 10.502.064v10.519h-40.029c-8.815 0-15.987 7.172-15.987 15.988v8.531c0 8.815 7.172 15.987 15.987 15.987h17.543c4.143 0 7.5-3.357 7.5-7.5s-3.357-7.5-7.5-7.5h-17.543c-.544 0-.987-.443-.987-.987v-8.531c0-.545.443-.988.987-.988h219.952c.545 0 .988.443.988.988v8.531c0 .544-.443.987-.988.987h-172.424c-4.143 0-7.5 3.357-7.5 7.5s3.357 7.5 7.5 7.5h172.423c8.816 0 15.988-7.172 15.988-15.987v-8.531c0-8.816-7.172-15.988-15.988-15.988h-40.028v-10.519c8.765-.03 6.747.062 10.502-.062zm-243.43 25.784v10.107c0 .109-.089.199-.199.199h-179.589c-.11 0-.2-.09-.2-.199v-10.107c0-.11.09-.2.2-.2h179.589c.11-.001.199.089.199.2zm-158.8-15.201v-84.988h137.614v84.988zm96.415-228.88v12.496c-2.718-.151-52.524-.151-55.216-.001v-12.495c0-.205.167-.372.372-.372h54.472c.205-.001.372.166.372.372zm217.101-59.124h2.858c8.747 0 15.863 7.116 15.863 15.862v83.834h-18.722v-99.696zm-18.208 114.696h52.944v9.846h-52.944zm-112.912 86.318c0-28.125 18.994-51.883 44.823-59.162v118.324c-25.829-7.279-44.823-31.036-44.823-59.162zm59.823 61.43v-122.86c2.533-.067 157.423-.051 159.123-.005v122.865c-2.294.06-156.246.076-159.123 0zm134.509 25.56h-109.895v-10.519h109.895z"/></g></svg>