<svg id="Capa_1" enable-background="new 0 0 513.307 513.307" height="512" viewBox="0 0 513.307 513.307" width="512" xmlns="http://www.w3.org/2000/svg"><g><path d="m147.03 122.798c-2.774 8.341-1.257 17.544-.422 21.308-.9.965-1.77 1.948-2.612 2.942.036-.159.078-.316.139-.465 1.575-3.831-.254-8.213-4.085-9.788-3.826-1.573-8.213.253-9.788 4.085-2.354 5.728-1.656 12.11 2.021 18.459.484.835.988 1.611 1.488 2.325-6.774 11.656-9.965 21.79-10.243 22.699-1.214 3.957 1.008 8.144 4.962 9.363 3.939 1.214 8.147-.984 9.375-4.954.071-.23 4.149-13.088 12.666-25.56 1.743.731 3.973 2.201 5.449 5.151 1.84 3.679 6.33 5.218 10.062 3.354 3.705-1.853 5.206-6.357 3.354-10.062-2.341-4.681-5.649-7.925-9.044-10.12 1.103-1.041 2.248-2.039 3.436-2.982 1.754.691 4.177 2.159 5.725 5.254 1.845 3.693 6.343 5.214 10.062 3.354 3.705-1.852 5.207-6.356 3.354-10.062-1.21-2.42-2.684-4.444-4.289-6.152.225-.058.448-.119.675-.172 4.032-.945 6.535-4.98 5.59-9.014-.944-4.033-4.979-6.527-9.014-5.59-5.65 1.324-10.783 3.571-15.431 6.428.057-1.751.289-3.511.808-5.071 1.307-3.93-.82-8.176-4.751-9.483-3.932-1.304-8.18.822-9.487 4.753z"/><path d="m288.812 145.592c4.143 0 7.5-3.357 7.5-7.5s-3.357-7.5-7.5-7.5h-58.824c-4.143 0-7.5 3.357-7.5 7.5s3.357 7.5 7.5 7.5z"/><path d="m208.678 173.636c0 4.143 3.357 7.5 7.5 7.5h86.445c4.143 0 7.5-3.357 7.5-7.5s-3.357-7.5-7.5-7.5h-86.445c-4.143 0-7.5 3.357-7.5 7.5z"/><path d="m93.577 253.088h-26.866c-6.678 0-12.11 5.433-12.11 12.11v32.497c0 6.678 5.433 12.11 12.11 12.11h26.866c6.678 0 12.11-5.433 12.11-12.11v-32.497c.001-6.677-5.432-12.11-12.11-12.11zm-2.889 41.718h-21.087v-26.718h21.087z"/><path d="m128.744 253.088c-6.678 0-12.11 5.433-12.11 12.11v32.497c0 6.678 5.433 12.11 12.11 12.11h26.867c6.678 0 12.11-5.433 12.11-12.11v-32.497c0-6.678-5.433-12.11-12.11-12.11zm23.978 41.718h-21.088v-26.718h21.088z"/><path d="m276.743 253.088c-6.678 0-12.11 5.433-12.11 12.11v32.497c0 6.678 5.433 12.11 12.11 12.11h26.867c6.678 0 12.11-5.433 12.11-12.11v-32.497c0-6.678-5.433-12.11-12.11-12.11zm23.978 41.718h-21.088v-26.718h21.088z"/><path d="m338.777 253.088c-6.678 0-12.11 5.433-12.11 12.11v32.497c0 6.678 5.433 12.11 12.11 12.11h26.867c6.678 0 12.11-5.433 12.11-12.11v-32.497c0-6.678-5.433-12.11-12.11-12.11zm23.978 41.718h-21.088v-26.718h21.088z"/><path d="m505.807 413.548h-8.293v-48.684c0-33.665-27.388-61.053-61.053-61.053h-18.593v-27.371c0-4.143-3.357-7.5-7.5-7.5s-7.5 3.357-7.5 7.5v137.106h-198.808v-58.156c0-8.552-6.958-15.51-15.51-15.51h-118.064c-8.552 0-15.51 6.958-15.51 15.51v11.479c0 4.143 3.357 7.5 7.5 7.5s7.5-3.357 7.5-7.5v-11.479c0-.281.229-.51.51-.51h29.458v58.666h-29.967v-16.69c0-4.143-3.357-7.5-7.5-7.5s-7.5 3.357-7.5 7.5v16.69h-25.49v-226.405h36.452l32.224 37.396c1.425 1.653 3.499 2.604 5.682 2.604h224.667c2.183 0 4.257-.951 5.682-2.604l32.225-37.396h36.451v59.312c0 4.143 3.357 7.5 7.5 7.5s7.5-3.357 7.5-7.5v-66.812c0-4.143-3.357-7.5-7.5-7.5h-47.389c-2.183 0-4.257.951-5.682 2.604l-.16.186-15.735-65.275c-3.534-14.658-16.533-24.896-31.612-24.896h-134.577c-4.143 0-7.5 3.357-7.5 7.5s3.357 7.5 7.5 7.5h134.575c8.123 0 15.126 5.516 17.03 13.412l18.261 75.751-20.008 23.218h-217.792l-20.007-23.218 18.26-75.751c1.904-7.896 8.907-13.412 17.031-13.412h22.663c4.143 0 7.5-3.357 7.5-7.5s-3.357-7.5-7.5-7.5h-22.663c-15.079 0-28.079 10.238-31.613 24.896l-15.735 65.275-.16-.186c-1.425-1.653-3.499-2.604-5.682-2.604h-47.39c-4.143 0-7.5 3.357-7.5 7.5v233.907h-6.985c-4.143 0-7.5 3.357-7.5 7.5s3.357 7.5 7.5 7.5h498.307c4.143 0 7.5-3.357 7.5-7.5s-3.358-7.5-7.5-7.5zm-87.939-52.736h18.593c2.234 0 4.053 1.818 4.053 4.053v48.684h-22.646zm18.593-42c25.394 0 46.053 20.659 46.053 46.053v48.683h-27v-48.683c0-10.506-8.547-19.053-19.053-19.053h-18.593v-27zm-247.401 36.579v58.156h-29.967v-58.666h29.457c.281 0 .51.228.51.51zm-74.116-.51h29.148v58.666h-29.148z"/></g></svg>