<svg id="Capa_1" enable-background="new 0 0 512 512" height="512" viewBox="0 0 512 512" width="512" xmlns="http://www.w3.org/2000/svg"><g><path d="m302.628 233.723c-3.953-1.241-8.163.952-9.406 4.902-1.243 3.951.951 8.162 4.902 9.406 11.541 3.632 21.13 12.015 26.307 22.997 1.279 2.713 3.976 4.304 6.789 4.304 1.071 0 2.16-.23 3.193-.718 3.746-1.767 5.352-6.235 3.586-9.982-6.957-14.757-19.85-26.023-35.371-30.909z"/><path d="m359.227 264.165c.806 0 1.624-.131 2.428-.405 3.919-1.341 6.01-5.604 4.67-9.523-8.181-23.923-27.513-42.544-51.712-49.812-3.968-1.196-8.149 1.058-9.34 5.025s1.059 8.148 5.025 9.34c19.576 5.88 35.214 20.944 41.833 40.3 1.065 3.115 3.977 5.075 7.096 5.075z"/><path d="m139.433 215.898h39.231c4.143 0 7.5-3.357 7.5-7.5s-3.357-7.5-7.5-7.5h-39.231c-4.143 0-7.5 3.357-7.5 7.5s3.357 7.5 7.5 7.5z"/><path d="m139.433 243.542h39.231c4.143 0 7.5-3.357 7.5-7.5s-3.357-7.5-7.5-7.5h-39.231c-4.143 0-7.5 3.357-7.5 7.5s3.357 7.5 7.5 7.5z"/><path d="m155.201 367.055-5.093-8.177c-2.191-3.517-6.817-4.591-10.331-2.401-3.517 2.189-4.591 6.815-2.401 10.331l5.093 8.177c1.422 2.282 3.869 3.536 6.373 3.536 1.354 0 2.725-.366 3.958-1.135 3.516-2.189 4.591-6.815 2.401-10.331z"/><path d="m224.785 373.209c1.665 0 3.342-.552 4.733-1.687l7.034-5.732c3.211-2.616 3.692-7.341 1.075-10.552-2.616-3.211-7.341-3.695-10.552-1.075l-7.034 5.732c-3.211 2.616-3.692 7.341-1.075 10.552 1.483 1.82 3.641 2.762 5.819 2.762z"/><path d="m418.273 378.52c1.879 0 3.76-.702 5.216-2.111 2.976-2.882 3.053-7.63.172-10.605l-7.917-8.177c-2.882-2.976-7.63-3.052-10.605-.172-2.976 2.882-3.053 7.63-.172 10.605l7.917 8.177c1.471 1.519 3.428 2.283 5.389 2.283z"/><path d="m347.803 387.27c2.332 0 4.631-1.085 6.096-3.123l5.861-8.154c2.418-3.364 1.651-8.05-1.712-10.468-3.364-2.417-8.051-1.652-10.468 1.712l-5.861 8.154c-2.418 3.364-1.651 8.05 1.712 10.468 1.325.952 2.855 1.411 4.372 1.411z"/><path d="m466.342 379.116c1.289 0 2.595-.332 3.786-1.031l7.351-4.31c3.573-2.095 4.772-6.689 2.677-10.263-2.094-3.574-6.692-4.772-10.263-2.677l-7.351 4.31c-3.573 2.095-4.772 6.689-2.677 10.263 1.396 2.382 3.903 3.708 6.477 3.708z"/><path d="m290.67 387.269c4.143 0 7.5-3.357 7.5-7.5s-3.357-7.5-7.5-7.5h-11.444c-4.143 0-7.5 3.357-7.5 7.5s3.357 7.5 7.5 7.5z"/><path d="m490.796 332.965c-23.783-3.862-30.261-18.989-66.188-18.989-12.343 0-21.368 1.849-28.715 4.372v-35.192c0-25.702-9.195-50.647-25.894-70.241-2.687-3.153-7.422-3.531-10.572-.844-3.153 2.687-3.53 7.42-.844 10.572 14.387 16.883 22.31 38.373 22.31 60.513v41.82c-9.305 4.657-18.24 9-36.176 9-13.273 0-21.611-2.382-28.824-5.507v-45.313c0-15.68-12.757-28.436-28.437-28.436h-34.166v-34.502h15.388c4.143 0 7.5-3.357 7.5-7.5s-3.357-7.5-7.5-7.5h-15.388v-15.498h34.167c17.817 0 35.156 5.059 50.142 14.629 1.251.799 2.648 1.18 4.03 1.18 2.475 0 4.897-1.224 6.328-3.464 2.229-3.491 1.206-8.129-2.284-10.358-17.401-11.112-37.532-16.986-58.216-16.986h-34.167v-9.1c0-7.172-5.835-13.007-13.007-13.007h-23.972c-7.172 0-13.006 5.835-13.006 13.007v.248h-90.748v-25.259h5.493c9.38 0 17.011-7.632 17.011-17.012v-15.22c0-9.38-7.631-17.012-17.011-17.012h-56.062c-4.143 0-7.5 3.357-7.5 7.5s3.357 7.5 7.5 7.5h56.062c1.108 0 2.011.902 2.011 2.012v15.22c0 1.109-.902 2.012-2.011 2.012-15.409 0-85.946 0-103.051 0v-19.243h17.001c4.143 0 7.5-3.357 7.5-7.5s-3.357-7.5-7.5-7.5h-24.5c-4.143 0-7.5 3.357-7.5 7.5v314.267c0 4.143 3.357 7.5 7.5 7.5h125.778c4.143 0 7.5-3.357 7.5-7.5s-3.357-7.5-7.5-7.5h-20.721v-76.377c30.068 2.362 33.274 19.72 72.387 19.72 41.797 0 42.639-20 79.886-20 37.246 0 38.028 20 79.888 20 41.799 0 42.642-20 79.891-20 32.385 0 35.873 14.263 63.783 18.796 4.907.797 8.608 5.23 8.608 10.314v47.547h-333.734c-4.143 0-7.5 3.357-7.5 7.5s3.357 7.5 7.5 7.5h341.234c4.143 0 7.5-3.357 7.5-7.5v-55.047c0-12.561-8.918-23.127-21.204-25.122zm-272.49-165.351h19.984v109.213h-19.984v-5.755-97.703zm-15 13.255v82.703h-90.748v-82.703zm-188.306 28.27h33.779v95.952h-33.779zm0 110.952h41.279c4.143 0 7.5-3.357 7.5-7.5v-110.952c0-4.143-3.357-7.5-7.5-7.5h-41.279v-53.529h82.558v265.023h-82.558zm169.944 13.885c-35.207 0-37.203-17.39-72.387-19.755v-35.649h90.748v.248c0 7.172 5.834 13.007 13.006 13.007h23.972c7.172 0 13.007-5.835 13.007-13.007v-9.1h34.167c7.409 0 13.437 6.027 13.437 13.436v38.121c-8.632-3.885-19.282-7.301-36.063-7.301-41.757 0-42.664 20-79.887 20z"/></g></svg>