<svg id="Capa_1" enable-background="new 0 0 512 512" height="512" viewBox="0 0 512 512" width="512" xmlns="http://www.w3.org/2000/svg"><g><path d="m504.5 490.453h-12.896l-30.076-268.166 4.521-.021c4.142-.02 7.484-3.393 7.465-7.535-.02-4.13-3.373-7.465-7.499-7.465h-.036l-13.689.064v-27.01h9.125c4.143 0 7.5-3.357 7.5-7.5s-3.357-7.5-7.5-7.5h-9.125v-10.114h.125c4.143 0 7.5-3.357 7.5-7.5s-3.357-7.5-7.5-7.5h-.125v-2.267c0-4.143-3.357-7.5-7.5-7.5s-7.5 3.357-7.5 7.5v2.267h-.125c-4.143 0-7.5 3.357-7.5 7.5s3.357 7.5 7.5 7.5h.125v10.114h-9.125c-4.143 0-7.5 3.357-7.5 7.5s3.357 7.5 7.5 7.5h9.125v27.08l-44.088.207v-27.287h9.124c4.143 0 7.5-3.357 7.5-7.5s-3.357-7.5-7.5-7.5h-9.124v-10.114h.124c4.143 0 7.5-3.357 7.5-7.5s-3.357-7.5-7.5-7.5h-.124v-2.267c0-4.143-3.357-7.5-7.5-7.5s-7.5 3.357-7.5 7.5v2.267h-.125c-4.143 0-7.5 3.357-7.5 7.5s3.357 7.5 7.5 7.5h.125v10.114h-9.125c-4.143 0-7.5 3.357-7.5 7.5s3.357 7.5 7.5 7.5h9.125v27.357l-13.76.064c-4.142.02-7.484 3.393-7.465 7.535.02 4.13 3.373 7.465 7.499 7.465h.036l4.401-.021-4.588 40.908c-7.52-2.755-18.286-4.265-30.469 1.441-11.063 5.183-15.865 14.901-19.372 21.998-1.099 2.225-1.987 3.931-2.757 5.233v-187.84c0-4.143-3.357-7.5-7.5-7.5h-26.98v-82.913c0-4.143-3.357-7.5-7.5-7.5h-33.449c-4.143 0-7.5 3.357-7.5 7.5s3.357 7.5 7.5 7.5h25.949v75.413h-189.158v-75.413h133.221c4.143 0 7.5-3.357 7.5-7.5s-3.357-7.5-7.5-7.5h-140.721c-4.143 0-7.5 3.357-7.5 7.5v82.913h-26.98c-4.143 0-7.5 3.357-7.5 7.5v223.111h-6.014c-6.239 0-11.314 5.076-11.314 11.315v18.765c0 6.239 5.075 11.315 11.314 11.315h6.014v121.485h-16.109c-4.143 0-7.5 3.357-7.5 7.5s3.357 7.5 7.5 7.5h497c4.143 0 7.5-3.357 7.5-7.5s-3.357-7.498-7.5-7.498zm-150.521 0 7.129-63.561 97.848 31.847-69.344 31.714zm24.021-214.178c.001-.009.002-.018.003-.027l1.074-9.575 64.146 29.027-70.683 29.25zm93.648 170.82-92.702-30.172 85.956-29.979zm-9.158-81.651-77.619-29.363 71.029-29.394zm-92.37-18.906 79.19 29.958-85.91 29.963zm103.91 121.801 2.48 22.114h-50.834zm-20.695-184.528-64.447-29.164 53.056-32.268 4.499-.021zm-40.483-61.296-30.932 18.813 2.095-18.678zm-374.244-110.555h258.118v215.611h-258.118zm-17.328 230.612h292.774v11.396h-292.774zm92.436 91.813h46.451v56.067h-46.451zm61.451 56.068v-56.067h46.452v56.067zm61.452 0v-56.067h.904c4.143 0 7.5-3.357 7.5-7.5s-3.357-7.5-7.5-7.5h-139.712c-4.143 0-7.5 3.357-7.5 7.5s3.357 7.5 7.5 7.5h.905v56.067h-60.108v-121.486h258.118v42.925c0 4.143 3.357 7.5 7.5 7.5s7.5-3.357 7.5-7.5v-42.925h6.013c6.239 0 11.315-5.076 11.315-11.315v-18.765c0-6.239-5.076-11.315-11.315-11.315h-6.013v-16.933c8.903-2.163 13.017-10.472 16.205-16.925 3.076-6.225 5.981-12.104 12.287-15.059 9.743-4.566 18.039-1.733 22.359.553l-23.692 211.245h-27.159v-48.574c0-4.143-3.357-7.5-7.5-7.5s-7.5 3.357-7.5 7.5v48.574z"/><path d="m99.894 87.576c1.312.922 2.816 1.365 4.307 1.365 2.359-.001 4.683-1.111 6.143-3.188l18.716-26.623c1.609-2.29 1.811-5.286.521-7.771-1.291-2.484-3.857-4.043-6.656-4.043h-8.364l4.267-5.808c2.452-3.338 1.734-8.032-1.604-10.484-3.338-2.454-8.032-1.735-10.484 1.604l-13.04 17.748c-1.674 2.278-1.925 5.305-.647 7.827 1.276 2.523 3.864 4.113 6.691 4.113h8.741l-10.411 14.81c-2.385 3.389-1.569 8.068 1.82 10.45z"/><path d="m229.397 36.007h-75.649c-4.143 0-7.5 3.357-7.5 7.5s3.357 7.5 7.5 7.5h75.649c4.143 0 7.5-3.357 7.5-7.5s-3.357-7.5-7.5-7.5z"/><path d="m229.397 67.501h-75.649c-4.143 0-7.5 3.357-7.5 7.5s3.357 7.5 7.5 7.5h75.649c4.143 0 7.5-3.357 7.5-7.5s-3.357-7.5-7.5-7.5z"/><path d="m103.722 232.792h-31.299c-5.511 0-9.994 4.483-9.994 9.994v58.151c0 5.511 4.483 9.994 9.994 9.994h31.299c5.511 0 9.994-4.483 9.994-9.994v-58.151c0-5.51-4.484-9.994-9.994-9.994zm-5.006 63.14h-21.287v-48.14h21.287z"/><path d="m262.912 232.792h-31.3c-5.51 0-9.993 4.483-9.993 9.994v58.151c0 5.511 4.483 9.994 9.993 9.994h31.3c5.51 0 9.993-4.483 9.993-9.994v-58.151c0-5.51-4.483-9.994-9.993-9.994zm-5.007 63.14h-21.286v-48.14h21.286z"/><path d="m103.722 128.6h-31.299c-5.511 0-9.994 4.483-9.994 9.994v58.152c0 5.51 4.483 9.993 9.994 9.993h31.299c5.511 0 9.994-4.483 9.994-9.993v-58.152c0-5.511-4.484-9.994-9.994-9.994zm-5.006 63.14h-21.287v-48.14h21.287z"/><path d="m183.317 128.6h-31.3c-5.511 0-9.994 4.483-9.994 9.994v58.152c0 5.51 4.483 9.993 9.994 9.993h31.3c5.51 0 9.993-4.483 9.993-9.993v-58.152c.001-5.511-4.483-9.994-9.993-9.994zm-5.006 63.14h-21.287v-48.14h21.287z"/><path d="m262.912 128.6h-31.3c-5.51 0-9.993 4.483-9.993 9.994v58.152c0 5.51 4.483 9.993 9.993 9.993h31.3c5.51 0 9.993-4.483 9.993-9.993v-58.152c0-5.511-4.483-9.994-9.993-9.994zm-5.007 63.14h-21.286v-48.14h21.286z"/><path d="m183.317 232.792h-31.3c-5.51 0-9.993 4.483-9.993 9.994v18.224c0 4.143 3.357 7.5 7.5 7.5s7.5-3.357 7.5-7.5v-13.218h21.286v48.14h-21.286v-4.935c0-4.143-3.357-7.5-7.5-7.5s-7.5 3.357-7.5 7.5v9.94c0 5.511 4.483 9.994 9.993 9.994h31.3c5.51 0 9.993-4.483 9.993-9.994v-58.151c.001-5.51-4.483-9.994-9.993-9.994z"/></g></svg>