<svg id="Capa_1" enable-background="new 0 0 512 512" height="512" viewBox="0 0 512 512" width="512" xmlns="http://www.w3.org/2000/svg"><g><path d="m504.5 446.833h-15.812v-54.474h11.187c4.143 0 7.5-3.357 7.5-7.5s-3.357-7.5-7.5-7.5h-2.667v-33.322c0-4.143-3.357-7.5-7.5-7.5s-7.5 3.357-7.5 7.5v33.322h-77.135v-92.021c0-16.783 13.654-30.438 30.438-30.438h16.259c16.784 0 30.438 13.654 30.438 30.438v28.712c0 4.143 3.357 7.5 7.5 7.5s7.5-3.357 7.5-7.5v-28.712c0-25.055-20.384-45.438-45.438-45.438h-.629v-26.062c0-13.872-11.286-25.158-25.158-25.158h-65.883v-24.33c0-4.143-3.357-7.5-7.5-7.5h-34.737v-88.096c0-10.249-8.338-18.587-18.587-18.587h-18.173c-4.143 0-7.5 3.357-7.5 7.5s3.357 7.5 7.5 7.5h18.173c1.978 0 3.587 1.609 3.587 3.587v88.095h-227.919v-88.095c0-1.978 1.609-3.587 3.588-3.587h172.582c4.143 0 7.5-3.357 7.5-7.5s-3.357-7.5-7.5-7.5h-172.582c-10.249 0-18.588 8.338-18.588 18.587v88.095h-34.737c-4.143 0-7.5 3.357-7.5 7.5v79.637h-1.028c-4.143 0-7.5 3.357-7.5 7.5s3.357 7.5 7.5 7.5h1.028v96.248c0 4.143 3.357 7.5 7.5 7.5s7.5-3.357 7.5-7.5v-35.696h312.392v127.294h-32.011v-46.799h2.046c4.143 0 7.5-3.357 7.5-7.5s-3.357-7.5-7.5-7.5h-98.052c-4.143 0-7.5 3.357-7.5 7.5s3.357 7.5 7.5 7.5h2.046v46.799h-60.45v-46.799h2.046c4.143 0 7.5-3.357 7.5-7.5s-3.357-7.5-7.5-7.5h-98.052c-4.143 0-7.5 3.357-7.5 7.5s3.357 7.5 7.5 7.5h2.046v46.799h-32.011v-61.61c0-4.143-3.357-7.5-7.5-7.5s-7.5 3.357-7.5 7.5v61.611h-10.207c-4.143 0-7.5 3.357-7.5 7.5s3.357 7.5 7.5 7.5h497c4.143 0 7.5-3.357 7.5-7.5s-3.357-7.5-7.5-7.5zm-30.812 0h-22.548v-54.474h22.548zm-37.548-54.474v54.474h-22.548v-54.474zm-48.735-15c-4.143 0-7.5 3.357-7.5 7.5s3.357 7.5 7.5 7.5h11.187v54.474h-38.493v-94.953h29.974v25.479zm2.667-40.479h-29.974v-10.522h29.974zm35.909-133.201c5.602 0 10.158 4.557 10.158 10.158v26.063h-.63c-25.055 0-45.438 20.383-45.438 45.438v26.021h-29.974v-52.372h1.028c4.143 0 7.5-3.357 7.5-7.5s-3.357-7.5-7.5-7.5h-1.028v-40.307h65.884zm-80.882 40.307h-21.377v-72.137h21.377zm-36.377-72.137v72.137h-21.377v-72.137zm-57.754 72.137v-72.137h21.377v72.137zm-72.754 0v-72.137h21.377v72.137zm-36.376 0v-72.137h21.376v72.137zm-15 0h-21.377v-72.137h21.377zm87.753-72.137h21.377v72.137h-21.377zm-124.13 0v72.137h-21.377v-72.137zm-57.754 0h21.377v72.137h-21.377zm0 87.137h39.565v45.552h-39.565zm54.565 0h39.565v45.552h-39.565zm54.566 0h39.564v45.552h-39.564zm54.564 0h39.565v45.552h-39.565zm54.566 0h39.565v45.552h-39.565zm94.13 45.552h-39.564v-45.552h39.564zm-110.97 95.495h63.96v46.799h-63.96zm-154.41 0h63.96v46.799h-63.96z"/><path d="m142.27 91.757c4.143 0 7.5-3.357 7.5-7.5s-3.357-7.5-7.5-7.5h-8.183c-2.998 0-5.708 1.785-6.892 4.54l-6.05 14.085h-8.825c-2.079 0-4.065.863-5.484 2.384-1.418 1.521-2.142 3.562-1.998 5.637l2.128 30.603c.438 6.311 5.737 11.254 12.063 11.254h14.116c6.326 0 11.625-4.943 12.063-11.253l2.128-30.604c.144-2.075-.58-4.116-1.998-5.637-1.419-1.521-3.405-2.384-5.484-2.384h-2.383l1.557-3.625zm-11.837 38.502h-8.69l-1.382-19.877h11.454z"/><path d="m188.992 88.044c0 4.143 3.357 7.5 7.5 7.5h69.616c4.143 0 7.5-3.357 7.5-7.5s-3.357-7.5-7.5-7.5h-69.616c-4.142 0-7.5 3.358-7.5 7.5z"/><path d="m266.108 103.508h-69.616c-4.143 0-7.5 3.357-7.5 7.5s3.357 7.5 7.5 7.5h69.616c4.143 0 7.5-3.357 7.5-7.5s-3.357-7.5-7.5-7.5z"/><path d="m266.108 126.473h-69.616c-4.143 0-7.5 3.357-7.5 7.5s3.357 7.5 7.5 7.5h69.616c4.143 0 7.5-3.357 7.5-7.5s-3.357-7.5-7.5-7.5z"/></g></svg>