<svg id="Capa_1" enable-background="new 0 0 512.001 512.001" height="512" viewBox="0 0 512.001 512.001" width="512" xmlns="http://www.w3.org/2000/svg"><g><path d="m220.283 138.305c0-4.143-3.357-7.5-7.5-7.5s-7.5 3.357-7.5 7.5v7.261c0 4.143 3.357 7.5 7.5 7.5s7.5-3.357 7.5-7.5z"/><path d="m212.783 264.168c-4.143 0-7.5 3.357-7.5 7.5v7.262c0 4.143 3.357 7.5 7.5 7.5s7.5-3.357 7.5-7.5v-7.262c0-4.143-3.357-7.5-7.5-7.5z"/><path d="m458.499 310.207h-52.521c-4.143 0-7.5 3.357-7.5 7.5s3.357 7.5 7.5 7.5h52.521c4.143 0 7.5-3.357 7.5-7.5s-3.357-7.5-7.5-7.5z"/><path d="m385.742 259.33c-2.929-2.93-7.677-2.93-10.607-.004-2.93 2.929-2.932 7.677-.004 10.607l1.335 1.336c2.929 2.929 7.676 2.932 10.607.004 2.93-2.929 2.932-7.677.004-10.607z"/><path d="m489.345 259.328c-2.93-2.928-7.678-2.928-10.607 0l-1.336 1.336c-2.929 2.93-2.929 7.678 0 10.607 2.931 2.929 7.678 2.928 10.607 0l1.336-1.336c2.928-2.929 2.928-7.677 0-10.607z"/><path d="m216.115 347.515c-15.444 0-28.009 12.564-28.009 28.009s12.564 28.009 28.009 28.009 28.009-12.564 28.009-28.009-12.564-28.009-28.009-28.009zm0 41.017c-7.173 0-13.009-5.836-13.009-13.009s5.836-13.009 13.009-13.009 13.009 5.836 13.009 13.009-5.836 13.009-13.009 13.009z"/><path d="m512 103.527c0-15.833-12.882-28.715-28.715-28.715-37.492 0-117.991 0-151.365 0-16.823 0-31.183 12.021-34.144 28.581l-33.7 188.511-13.132 17.738v-139.333c0-4.143-3.357-7.5-7.5-7.5s-7.5 3.357-7.5 7.5v146.838c-6.228-2.121-12.893-3.29-19.829-3.29-9.478 0-18.461 2.154-26.492 5.991v-196.326c0-2.575 2.096-4.671 4.671-4.671h41.65v21.47c0 4.143 3.357 7.5 7.5 7.5s7.5-3.357 7.5-7.5v-21.47h11.448c4.143 0 7.5-3.357 7.5-7.5s-3.357-7.5-7.5-7.5c-17.287 0-51.833 0-68.099 0-10.847 0-19.671 8.824-19.671 19.671v9.101l-12.045 11.202c-29.654 27.58-15.416 63.387-15.413 63.488-12.061.913-21.596 11.011-21.596 23.301v125.46h-13.997c0-11.188 0-94.483 0-105.359 0-4.143-3.357-7.5-7.5-7.5h-82.89c-4.143 0-7.5 3.357-7.5 7.5v105.359h-6.181c-4.143 0-7.5 3.357-7.5 7.5s3.357 7.5 7.5 7.5h118.069v9.305c0 4.143 3.357 7.5 7.5 7.5h22.625c5.738 28.101 30.649 49.31 60.421 49.31 21.614 0 40.653-11.187 51.667-28.064h39.136c4.143 0 7.5-3.357 7.5-7.5s-3.357-7.5-7.5-7.5h-32.011c1.862-5.872 2.873-12.12 2.873-18.601 0-3.019-.228-5.985-.649-8.89h103.918c-3.755 6.806-5.898 14.621-5.898 22.929 0 1.539.08 3.059.223 4.562h-38.47c-4.143 0-7.5 3.357-7.5 7.5s3.357 7.5 7.5 7.5h42.467c7.479 16.529 24.115 28.064 43.406 28.064s35.928-11.535 43.407-28.064h29.584c8.95 0 16.231-7.281 16.231-16.231.002-56.718.001-217.192.001-289.367zm-483.317 154.688h26.445v6.185c0 4.143 3.357 7.5 7.5 7.5s7.5-3.357 7.5-7.5v-6.185h26.444v41.43h-67.89v-41.43zm0 97.859v-41.43h26.445v6.186c0 4.143 3.357 7.5 7.5 7.5s7.5-3.357 7.5-7.5v-6.186h26.444v41.43zm422.858-4.44c-7.998-6.08-17.964-9.698-28.763-9.698-10.798 0-20.764 3.618-28.762 9.698h-26.539c0-14.182 0-86.05 0-100.261 0-.141.114-.256.254-.256h129.269v100.517zm-30.801-129.395h21.709v13.878h-57.906v-5.696c0-4.512 3.67-8.182 8.182-8.182zm-108.198-116.205c1.681-9.399 9.83-16.222 19.378-16.222h20.557v14.939c0 4.143 3.357 7.5 7.5 7.5s7.5-3.357 7.5-7.5v-14.939h18.223v14.939c0 4.143 3.357 7.5 7.5 7.5s7.5-3.357 7.5-7.5v-14.939h82.585c7.562 0 13.715 6.152 13.715 13.715v132.59h-39.551v-20.417l2.801-10.721c1.047-4.008-1.354-8.104-5.361-9.152-4.012-1.047-8.106 1.353-9.152 5.361l-1.58 6.051h-13.705l14.788-56.604c.762-2.917 3.399-4.954 6.414-4.954 2.069 0 3.981.939 5.247 2.577 1.265 1.639 1.69 3.727 1.167 5.729l-4.751 18.188c-1.047 4.008 1.354 8.105 5.361 9.152 4.015 1.047 8.106-1.354 9.152-5.361l4.751-18.188c1.706-6.532.318-13.344-3.81-18.688-4.127-5.344-10.366-8.408-17.118-8.408-9.835 0-18.441 6.646-20.928 16.163l-15.778 60.396h-22.223c-12.782 0-23.182 10.399-23.182 23.182v5.696h-1.812c-8.411 0-15.254 6.844-15.254 15.256v36.081h-32.81v-65.297c0-2.305-.423-4.507-1.16-6.561l13.13-16.451 3.973 3.666c3.045 2.808 7.79 2.617 10.599-.427 2.809-3.045 2.617-7.79-.427-10.599l-18.784-17.329c-3.045-2.808-7.789-2.617-10.599.427-2.809 3.045-2.617 7.79.427 10.599l3.757 3.466-12.354 15.479c-2.458-1.121-5.18-1.763-8.054-1.763h-4.907zm-19.912 111.63h7.545c2.478 0 4.493 2.016 4.493 4.493v65.297h-24.553zm-118.007-64.556v54.131h-11.646l-1.969-5.817c-9.981-29.488 13.485-48.098 13.615-48.314zm-34.054 77.506c0-4.618 3.758-8.376 8.376-8.376h25.678v107.706c-11.778 10.732-19.386 25.957-20.107 42.934h-13.947zm75.546 191.574c-25.731 0-46.666-20.934-46.666-46.665s20.935-46.666 46.666-46.666 46.666 20.935 46.666 46.666-20.934 46.665-46.666 46.665zm39.648-93.846 19.167-25.888h77.548v49.18h-79.514c-3.828-9.073-9.771-17.038-17.201-23.292zm167.015 93.846c-17.99 0-32.626-14.636-32.626-32.626s14.636-32.627 32.626-32.627 32.627 14.637 32.627 32.627-14.636 32.626-32.627 32.626zm74.223-29.295c0 .679-.553 1.231-1.231 1.231h-25.588c.143-1.502.223-3.022.223-4.562 0-8.308-2.143-16.122-5.898-22.929h32.494z"/><path d="m422.778 379.692c-4.143 0-7.5 3.357-7.5 7.5v4.739c0 4.143 3.357 7.5 7.5 7.5s7.5-3.357 7.5-7.5v-4.739c0-4.142-3.357-7.5-7.5-7.5z"/></g></svg>