<svg id="Capa_1" enable-background="new 0 0 512.001 512.001" height="512" viewBox="0 0 512.001 512.001" width="512" xmlns="http://www.w3.org/2000/svg"><g><path d="m367.509 310.386c4.435-16.68-2.556-20.891 2.875-39.851.518-1.807 1.053-3.676 1.522-5.742.918-4.039-1.611-8.058-5.65-8.977-4.034-.917-8.059 1.612-8.977 5.65-.378 1.662-.834 3.254-1.316 4.938-1.839 6.421-3.923 13.698-2.27 26.82l.027.206c-9.679-8.857-21.702-15.191-35.021-17.945 15.996-15.966 25.946-37.983 26.09-62.283 1.797 5.395 4.015 9.202 6.07 12.713 1.84 3.146 3.43 5.863 4.726 9.683 1.332 3.923 5.592 6.023 9.513 4.692 3.922-1.331 6.023-5.59 4.692-9.513-1.785-5.261-4.017-9.073-5.984-12.438-3.029-5.178-5.646-9.648-6.914-19.718-1.519-12.055-3.604-18.386-5.622-24.509-1.361-4.131-2.667-8.111-3.735-14.043h9.571c9.551 0 17.32-7.771 17.32-17.321v-14.429c0-9.551-7.77-17.321-17.32-17.321h-7.317v-2.556c0-34.732-18.977-65.114-47.106-81.324l.642-1.05c2.162-3.534 1.05-8.15-2.483-10.312-3.531-2.163-8.149-1.049-10.312 2.483l-1.486 2.43c-8.049-3.04-16.621-5.006-25.542-5.715v-7.454c0-4.143-3.357-7.5-7.5-7.5s-7.5 3.357-7.5 7.5v7.461c-8.783.709-17.375 2.657-25.53 5.731l-1.498-2.449c-2.162-3.533-6.777-4.646-10.312-2.483-3.533 2.161-4.646 6.777-2.483 10.312l.643 1.052c-8.393 4.813-16.072 10.933-22.699 18.215-2.788 3.063-2.564 7.807.499 10.595 3.062 2.786 7.807 2.563 10.595-.499 5.686-6.247 12.297-11.47 19.524-15.552 1.452 1.714 3.561 2.653 5.719 2.653 1.334 0 2.686-.356 3.907-1.104 2.63-1.609 3.916-4.578 3.511-7.449 5.839-2.013 11.918-3.352 18.124-3.949v4.667c0 4.143 3.357 7.5 7.5 7.5s7.5-3.357 7.5-7.5v-4.678c6.287.597 12.354 1.944 18.126 3.936-.416 2.878.871 5.859 3.508 7.473 1.222.748 2.572 1.104 3.907 1.104 2.156 0 4.261-.936 5.713-2.646 23.877 13.552 40.032 39.195 40.032 68.556v2.556h-157.575v-2.556c0-10.306 1.974-20.347 5.866-29.846 1.571-3.832-.263-8.213-4.096-9.783-3.831-1.57-8.214.263-9.783 4.096-4.637 11.312-6.987 23.267-6.987 35.533v2.556h-7.316c-9.551 0-17.321 7.771-17.321 17.321v14.429c0 9.551 7.771 17.321 17.321 17.321h9.57c-1.068 5.932-2.374 9.912-3.735 14.043-2.018 6.123-4.104 12.454-5.622 24.509-1.268 10.065-3.884 14.532-6.912 19.704-3.374 5.763-7.198 12.293-8.852 25.41-1.652 13.114.433 20.39 2.271 26.808 1.651 5.761 3.077 10.736 1.81 20.797-.028.701-1.667 8.767 1.065 19.043-6.59 11.085-10.388 24.015-10.388 37.82v145.762c0 9.943 8.09 18.033 18.033 18.033h29.853c4.143 0 7.5-3.357 7.5-7.5s-3.357-7.5-7.5-7.5h-29.853c-1.673 0-3.033-1.36-3.033-3.033v-36.41h99.397v39.443h-36.524c-4.143 0-7.5 3.357-7.5 7.5s3.357 7.5 7.5 7.5h147.887c9.943 0 18.033-8.09 18.033-18.033 0-14.735 0-127.951 0-145.762 0-13.807-3.799-26.736-10.388-37.821zm-63.867-21.436c32.673 0 59.255 26.582 59.255 59.256v67.141h-99.396v-21.42l25.466-98.811c4.323-1.735 8.478-3.801 12.435-6.166zm59.255 153.608h-99.396v-12.211h99.396zm-213.793-94.352c0-32.674 26.582-59.256 59.255-59.256h2.239c3.958 2.365 8.114 4.431 12.438 6.166l25.466 98.811v21.42h-99.397v-67.141zm106.897 14.718-16.224-62.949c5.262.976 10.683 1.49 16.223 1.49 5.541 0 10.962-.515 16.225-1.491zm73.794-150.254c0 40.69-33.104 73.795-73.795 73.795s-73.795-33.104-73.795-73.795v-52.598h147.59zm-177.219-69.919v-14.429c0-1.28 1.041-2.321 2.321-2.321h202.208c1.279 0 2.32 1.041 2.32 2.321v14.429c0 1.28-1.041 2.321-2.32 2.321-9.937 0-192.352 0-202.208 0-1.28 0-2.321-1.041-2.321-2.321zm1.653 102.862c1.268-10.066 3.884-14.533 6.912-19.705 2.055-3.51 4.275-7.313 6.071-12.707.143 24.3 10.094 46.319 26.09 62.285-13.319 2.754-25.342 9.087-35.021 17.944-.059-2.983 2.553-10.273-2.244-27.018-1.651-5.76-3.077-10.735-1.808-20.799zm-5.125 184.734h99.396v12.211h-99.396zm210.76 66.654h-96.362v-39.443h99.396v36.41c-.001 1.673-1.361 3.033-3.034 3.033z"/><path d="m220.983 213.921c4.143 0 7.5-3.357 7.5-7.5v-6.687c0-4.143-3.357-7.5-7.5-7.5s-7.5 3.357-7.5 7.5v6.687c0 4.142 3.357 7.5 7.5 7.5z"/><path d="m291.018 213.921c4.143 0 7.5-3.357 7.5-7.5v-6.687c0-4.143-3.357-7.5-7.5-7.5s-7.5 3.357-7.5 7.5v6.687c0 4.142 3.357 7.5 7.5 7.5z"/><path d="m235.204 247.558c6.803 4.664 13.8 6.995 20.797 6.995s13.994-2.331 20.797-6.995c3.416-2.342 4.287-7.01 1.944-10.427-2.341-3.415-7.008-4.286-10.427-1.944-8.516 5.838-16.113 5.838-24.629 0-3.418-2.343-8.086-1.471-10.427 1.944-2.342 3.417-1.471 8.085 1.945 10.427z"/><path d="m272.556 93.52c4.143 0 7.5-3.357 7.5-7.5s-3.357-7.5-7.5-7.5h-33.111c-4.143 0-7.5 3.357-7.5 7.5s3.357 7.5 7.5 7.5z"/><path d="m293.135 344.136 2.332 2.332c-.442.895-.826 1.823-1.152 2.778h-3.297c-4.143 0-7.5 3.357-7.5 7.5s3.357 7.5 7.5 7.5h3.297c.326.955.71 1.883 1.152 2.778l-2.332 2.332c-2.929 2.93-2.929 7.678 0 10.607 1.465 1.464 3.385 2.196 5.304 2.196s3.839-.732 5.304-2.196l2.332-2.332c.895.442 1.822.825 2.777 1.151v3.297c0 4.143 3.357 7.5 7.5 7.5s7.5-3.357 7.5-7.5v-3.297c.955-.326 1.883-.709 2.778-1.151l2.333 2.333c1.465 1.464 3.385 2.196 5.304 2.196s3.839-.732 5.304-2.196c2.929-2.93 2.929-7.678 0-10.607l-2.333-2.333c.442-.895.826-1.823 1.152-2.778h3.297c4.143 0 7.5-3.357 7.5-7.5s-3.357-7.5-7.5-7.5h-3.297c-.326-.955-.709-1.882-1.151-2.777l2.332-2.332c2.929-2.93 2.929-7.678 0-10.607-2.93-2.928-7.678-2.928-10.607 0l-2.332 2.332c-.895-.442-1.823-.826-2.778-1.152v-3.296c0-4.143-3.357-7.5-7.5-7.5s-7.5 3.357-7.5 7.5v3.296c-.955.326-1.883.709-2.778 1.151l-2.332-2.332c-2.93-2.928-7.678-2.928-10.607 0-2.93 2.929-2.93 7.677-.002 10.607zm31.5 12.609c0 4.567-3.716 8.283-8.283 8.283s-8.283-3.716-8.283-8.283 3.716-8.283 8.283-8.283 8.283 3.716 8.283 8.283z"/></g></svg>