<svg id="Capa_1" enable-background="new 0 0 511.996 511.996" height="512" viewBox="0 0 511.996 511.996" width="512" xmlns="http://www.w3.org/2000/svg"><g><path d="m466.005 196.348c-32.021-5.335-55.263-32.748-55.263-65.182 0-3.949-.008-1.299 5.511-84.077.905-13.452-8.35-25.742-21.527-28.588-7.424-1.602-75.831-16.368-84.949-18.336-1.974-.425-4.057-.013-5.688 1.054-11.11 7.266-22.113 12.035-33.083 14.312-.297.037-.588.094-.873.164-9.434 1.844-18.845 1.843-28.279-.004-.275-.067-.554-.121-.84-.157-10.975-2.275-21.982-7.047-33.097-14.314-1.911-1.262-3.53-1.368-5.753-1.04-.001 0-.001 0-.002 0 0 0-.001 0-.002 0-13.624 2.942-63.677 13.749-84.865 18.324-13.18 2.843-22.438 15.131-21.533 28.584l5.349 79.599c2.284 34.103-21.412 64.051-55.118 69.661-3.617.603-6.269 3.731-6.269 7.398v283.328c0 13.742 11.18 24.922 24.922 24.922h295.459c4.143 0 7.5-3.357 7.5-7.5s-3.357-7.5-7.5-7.5h-60.699l-37.337-28.183v-43.275h195.205v61.536c0 5.471-4.451 9.922-9.922 9.922h-57.26c-4.143 0-7.5 3.357-7.5 7.5s3.357 7.5 7.5 7.5h57.26c13.742 0 24.922-11.18 24.922-24.922v-283.328c-.001-3.666-2.651-6.796-6.269-7.398zm-411.282 197.418h192.345v16.772h-192.345zm0-15v-62.301h35.189c4.143 0 7.5-3.357 7.5-7.5s-3.357-7.5-7.5-7.5h-35.189v-16.772c63.212 0 103.085.002 192.345 0v16.772h-127.167c-4.143 0-7.5 3.357-7.5 7.5s3.357 7.5 7.5 7.5h127.167v62.301zm143.407-362.369 48.938 217.012v36.284h-67.755v-249.234zm47.404 44.718h20.935c7.153 0 12.974-5.819 12.974-12.973v-19.215c5.835-1.576 11.664-3.75 17.484-6.504l-14.697 61.693c-.96 4.029 1.528 8.074 5.558 9.034 4.074.966 8.084-1.566 9.034-5.558l16.966-71.216 18.906 4.081v249.235h-70.625v-36.212l27.804-116.715c.96-4.029-1.528-8.074-5.558-9.034-4.036-.957-8.075 1.529-9.034 5.558l-20.509 86.093-39.933-177.076c5.899 2.808 11.808 5.023 17.722 6.621v19.216c0 7.153 5.819 12.972 12.973 12.972zm211.739 240.35h-195.205v-16.772c9.609 0 129.829.002 195.205 0zm-109.58-31.772v-245.998l15.641 3.376v242.622zm-183.38 0h-15.65v-242.617l15.65-3.379zm97.755 46.772h195.205v62.301h-195.205zm139.219-270.384c-5.568 83.693-5.544 80.208-5.544 85.085 0 37.647 25.518 69.781 61.53 78.684v59.843h-78.939v-239.385l13.227 2.855c5.953 1.286 10.135 6.84 9.726 12.918zm-136.845-14.415v14.45h-16.881v-14.45c5.627.546 11.254.546 16.881 0zm-148.365 94.017-5.349-79.601c-.409-6.078 3.773-11.631 9.729-12.916l13.205-2.851v239.377h-78.939v-59.841c37.986-9.375 64.012-44.478 61.354-84.168zm118.552 371.313 19.939-15.051 19.939 15.051zm12.439-28.183-37.337 28.183h-145.086c-5.471 0-9.922-4.451-9.922-9.922v-61.536h192.345zm15-58.275v-16.772h195.205v16.772z"/></g></svg>