<svg id="Capa_1" enable-background="new 0 0 512 512" height="512" viewBox="0 0 512 512" width="512" xmlns="http://www.w3.org/2000/svg"><g><path d="m504.5 142.411h-18.249v-34.976c0-8.147-6.628-14.775-14.775-14.775h-30.054c-8.147 0-14.775 6.628-14.775 14.775v34.976h-16.896v-9.063c0-9.825-7.993-17.818-17.818-17.818h-13.415v-9.749c0-7.234-5.886-13.12-13.12-13.12h-9.396v-16.598c0-4.143-3.357-7.5-7.5-7.5s-7.5 3.357-7.5 7.5v16.597h-9.397c-7.234 0-13.119 5.886-13.119 13.12v9.749h-32.467v-9.749c0-7.234-5.886-13.12-13.12-13.12h-9.399v-16.597c0-4.143-3.357-7.5-7.5-7.5s-7.5 3.357-7.5 7.5v16.597h-9.396c-7.234 0-13.12 5.886-13.12 13.12v9.749h-32.467v-9.749c0-7.234-5.886-13.12-13.12-13.12h-9.397v-16.597c0-4.143-3.357-7.5-7.5-7.5s-7.5 3.357-7.5 7.5v16.597h-9.397c-7.234 0-13.119 5.886-13.119 13.12v9.749h-13.416c-9.824 0-17.817 7.993-17.817 17.818v9.063h-16.897v-34.976c0-8.147-6.628-14.775-14.775-14.775h-30.054c-8.147 0-14.775 6.628-14.775 14.775v34.976h-18.25c-4.143 0-7.5 3.357-7.5 7.5v27.674c0 4.143 3.357 7.5 7.5 7.5h7.915v25.453c0 4.143 3.357 7.5 7.5 7.5s7.5-3.357 7.5-7.5v-25.453h451.17v234.684c0 4.779-3.889 8.668-8.668 8.668h-37.997v-111.683c0-4.143-3.357-7.5-7.5-7.5s-7.5 3.357-7.5 7.5v111.684h-327.839v-166.015c0-3.588 2.919-6.507 6.506-6.507h314.826c3.588 0 6.507 2.919 6.507 6.507v24.345c0 4.143 3.357 7.5 7.5 7.5s7.5-3.357 7.5-7.5v-24.345c0-11.859-9.647-21.507-21.507-21.507h-314.826c-11.858 0-21.506 9.647-21.506 21.507v166.015h-37.997c-4.78 0-8.669-3.889-8.669-8.668v-179.245c0-4.143-3.357-7.5-7.5-7.5s-7.5 3.357-7.5 7.5v179.244c0 13.051 10.618 23.668 23.669 23.668h433.833c13.051 0 23.668-10.617 23.668-23.668v-234.683h7.915c4.143 0 7.5-3.357 7.5-7.5v-27.674c0-4.142-3.357-7.5-7.5-7.5zm-62.854-34.751h29.604v34.751h-29.604zm-108.162 0h30.033v7.869h-30.033zm-92.501 0h30.034v7.869h-30.034zm-92.5 0h30.033v7.869h-30.033zm-31.233 25.688c0-1.554 1.264-2.818 2.817-2.818h271.865c1.554 0 2.818 1.265 2.818 2.818v9.063h-277.5zm-76.5-25.688h29.604v34.751h-29.604zm456.25 62.425c-8.053 0-471.333 0-482 0v-12.674h482z"/><path d="m55.553 117.352c-4.143 0-7.5 3.357-7.5 7.5v1.4c0 4.143 3.357 7.5 7.5 7.5s7.5-3.357 7.5-7.5v-1.4c0-4.143-3.358-7.5-7.5-7.5z"/><path d="m456.448 117.352c-4.143 0-7.5 3.357-7.5 7.5v1.4c0 4.143 3.357 7.5 7.5 7.5s7.5-3.357 7.5-7.5v-1.4c0-4.143-3.357-7.5-7.5-7.5z"/><path d="m262.273 308.075c-3.339-2.454-8.031-1.735-10.484 1.604l-16.491 22.445c-1.674 2.278-1.925 5.305-.647 7.827 1.276 2.523 3.864 4.113 6.691 4.113h14.877l-15.364 21.856c-2.382 3.389-1.566 8.067 1.822 10.449s8.067 1.567 10.449-1.822l23.669-33.67c1.609-2.29 1.811-5.286.521-7.771-1.291-2.484-3.857-4.043-6.656-4.043h-14.5l7.718-10.505c2.451-3.336 1.733-8.031-1.605-10.483z"/><path d="m146.658 314.261h16.842c4.143 0 7.5-3.357 7.5-7.5s-3.357-7.5-7.5-7.5h-16.842c-4.143 0-7.5 3.357-7.5 7.5s3.358 7.5 7.5 7.5z"/><path d="m364.574 382.792c4.143 0 7.5-3.357 7.5-7.5s-3.357-7.5-7.5-7.5h-16.842c-4.143 0-7.5 3.357-7.5 7.5s3.357 7.5 7.5 7.5z"/><path d="m146.658 340.321h36.842c4.143 0 7.5-3.357 7.5-7.5s-3.357-7.5-7.5-7.5h-36.842c-4.143 0-7.5 3.357-7.5 7.5s3.358 7.5 7.5 7.5z"/><path d="m211.004 403.36c0 4.143 3.357 7.5 7.5 7.5h169.361c8.112 0 14.712-6.6 14.712-14.712v-107.944c0-8.112-6.6-14.712-14.712-14.712h-263.73c-8.112 0-14.712 6.6-14.712 14.712v107.944c0 8.112 6.6 14.712 14.712 14.712h64.382c4.143 0 7.5-3.357 7.5-7.5s-3.357-7.5-7.5-7.5h-64.094v-107.368h263.154v107.368h-169.073c-4.143 0-7.5 3.358-7.5 7.5z"/></g></svg>