<svg id="Capa_1" enable-background="new 0 0 512 512" height="512" viewBox="0 0 512 512" width="512" xmlns="http://www.w3.org/2000/svg"><g><path d="m337.298 360.324h-33.811c-4.143 0-7.5 3.357-7.5 7.5s3.357 7.5 7.5 7.5h33.811c4.143 0 7.5-3.357 7.5-7.5s-3.358-7.5-7.5-7.5z"/><path d="m272.559 93.52c4.143 0 7.5-3.357 7.5-7.5s-3.357-7.5-7.5-7.5h-33.111c-4.143 0-7.5 3.357-7.5 7.5s3.357 7.5 7.5 7.5z"/><path d="m392.633 289.243-15.805-15.805c-2.718-2.718-6.331-4.215-10.174-4.215-3.844 0-7.457 1.497-10.174 4.214l-2.651 2.651-6.692-6.692c8.917-14.477 14.294-30.956 15.538-48.226.298-4.132-2.811-7.723-6.941-8.02-4.13-.302-7.723 2.811-8.02 6.941-3.449 47.895-43.422 85.249-91.712 85.249-50.705 0-91.956-41.251-91.956-91.956v-53.313h183.914v30.572c0 4.143 3.357 7.5 7.5 7.5s7.5-3.357 7.5-7.5v-31.612c6.675-2.408 11.468-8.787 11.468-16.282v-14.429c0-9.551-7.77-17.321-17.32-17.321h-7.317v-2.556c0-34.732-18.977-65.114-47.106-81.323l.642-1.05c2.162-3.533 1.05-8.15-2.483-10.312-3.531-2.162-8.149-1.05-10.312 2.483l-1.486 2.43c-8.049-3.04-16.621-5.006-25.542-5.715v-7.456c0-4.143-3.357-7.5-7.5-7.5s-7.5 3.357-7.5 7.5v7.461c-8.783.709-17.375 2.657-25.53 5.73l-1.498-2.448c-2.162-3.533-6.779-4.647-10.312-2.483-3.533 2.161-4.646 6.778-2.483 10.312l.643 1.051c-8.393 4.813-16.073 10.934-22.699 18.215-2.788 3.063-2.564 7.807.499 10.595s7.807 2.563 10.595-.499c5.686-6.248 12.297-11.47 19.524-15.552 1.452 1.714 3.561 2.653 5.719 2.653 1.335 0 2.686-.355 3.907-1.104 2.63-1.609 3.916-4.578 3.511-7.448 5.839-2.012 11.917-3.352 18.124-3.949v4.667c0 4.143 3.357 7.5 7.5 7.5s7.5-3.357 7.5-7.5v-4.678c6.287.597 12.354 1.944 18.126 3.936-.415 2.877.871 5.859 3.509 7.472 1.222.748 2.572 1.104 3.907 1.104 2.155 0 4.26-.936 5.712-2.646 23.877 13.552 40.033 39.195 40.033 68.556v2.555h-157.575v-2.556c0-10.305 1.974-20.346 5.866-29.845 1.571-3.832-.263-8.213-4.096-9.783-3.832-1.571-8.214.263-9.783 4.096-4.637 11.312-6.987 23.267-6.987 35.532v2.556h-7.316c-9.551 0-17.321 7.771-17.321 17.321v14.429c0 7.495 4.794 13.874 11.469 16.282v54.353c0 20.508 5.807 39.684 15.856 55.978l-6.726 6.726-2.649-2.649c-2.718-2.718-6.331-4.215-10.175-4.215-3.843 0-7.456 1.497-10.173 4.214l-15.805 15.805c-2.718 2.718-4.215 6.331-4.215 10.174 0 3.844 1.497 7.457 4.214 10.174l17.73 17.73c-1.979 6.758-2.998 13.759-2.998 20.885v145.762c0 9.943 8.09 18.033 18.033 18.033h29.853c4.143 0 7.5-3.357 7.5-7.5s-3.357-7.5-7.5-7.5h-29.853c-1.673 0-3.033-1.36-3.033-3.033v-36.41h99.397v39.441h-36.524c-4.143 0-7.5 3.357-7.5 7.5s3.357 7.5 7.5 7.5h147.887c9.943 0 18.033-8.09 18.033-18.033 0-14.734 0-127.953 0-145.762 0-7.125-1.018-14.127-2.998-20.884l17.731-17.731c5.609-5.61 5.609-14.737 0-20.347zm-240.055-160.922c0-1.28 1.041-2.321 2.321-2.321h202.208c1.279 0 2.32 1.041 2.32 2.321v14.429c0 1.28-1.041 2.321-2.32 2.321-9.905 0-192.549 0-202.208 0-1.28 0-2.321-1.041-2.321-2.321zm190.645 158.374-9.01 9.01-4.668-4.669c3.107-2.943 6.017-6.049 8.722-9.298zm-76.096 33.065-11.123 43.162-11.123-43.157c3.657.38 7.367.576 11.122.576 3.737 0 7.448-.2 11.124-.581zm95.772 122.797h-99.396v-12.21h99.396zm-189.124-160.853c2.721 3.27 5.633 6.376 8.719 9.3l-4.701 4.701-9.01-9.01zm-28.422 2.775 7.519 7.518.002.002 19.616 19.616c.003.002.005.005.008.007l7.513 7.512-14.938 14.938-34.656-34.656zm9.545 60.635c2.805 2.805 6.489 4.207 10.174 4.207 3.684 0 7.368-1.402 10.173-4.207l15.806-15.806c5.609-5.609 5.609-14.737 0-20.347l-2.65-2.65 5.729-5.729c10.299 7.329 21.948 12.876 34.493 16.2l19.882 77.143v21.421h-99.397v-67.142c0-2.795.201-5.564.584-8.299zm-5.792 85.233h99.396v12.21h-99.396zm210.76 66.653h-96.362v-39.443h99.396v36.41c-.001 1.673-1.361 3.033-3.034 3.033zm3.033-148.795v67.142h-99.396v-21.421l19.876-77.125c12.357-3.261 24.039-8.73 34.526-16.189l5.7 5.7-2.65 2.65c-5.609 5.609-5.609 14.737.001 20.347l15.806 15.806c2.805 2.805 6.489 4.207 10.173 4.207 3.685 0 7.369-1.402 10.174-4.207l5.207-5.208c.382 2.734.583 5.503.583 8.298zm-15.963-14.132-14.939-14.938 17.328-17.327 9.809-9.809.002-.002 7.519-7.518 14.938 14.938z"/><path d="m256.003 296.168c17.405 0 31.565-14.16 31.565-31.565s-14.16-31.565-31.565-31.565-31.565 14.16-31.565 31.565 14.16 31.565 31.565 31.565zm0-48.131c9.134 0 16.565 7.432 16.565 16.565s-7.432 16.565-16.565 16.565-16.565-7.432-16.565-16.565 7.431-16.565 16.565-16.565z"/><path d="m248.058 204.819v-10.319c0-10.215-8.311-18.525-18.526-18.525h-30.587c-9.615 0-17.438 7.822-17.438 17.438v24.44c0 5.757 2.836 11.136 7.586 14.389 4.757 3.258 10.8 3.949 16.159 1.869l30.98-12.02h-.001c7.075-2.743 11.827-9.685 11.827-17.272zm-15 0c0 1.444-.904 2.765-2.25 3.287-.001 0-.001 0-.001 0l-30.979 12.02c-1.041.404-1.863.01-2.26-.262s-1.061-.893-1.061-2.012v-24.44c0-1.344 1.094-2.438 2.438-2.438h30.587c1.944 0 3.526 1.581 3.526 3.525z"/><path d="m322.914 232.241c4.75-3.253 7.586-8.632 7.586-14.389v-24.44c0-9.615-7.823-17.438-17.438-17.438h-30.586c-10.216 0-18.526 8.311-18.526 18.525v10.319c0 7.587 4.752 14.528 11.825 17.271l30.98 12.02c5.353 2.079 11.396 1.393 16.159-1.868zm-41.715-24.135c-1.346-.522-2.25-1.843-2.25-3.287v-10.319c0-1.944 1.582-3.525 3.526-3.525h30.586c1.345 0 2.438 1.094 2.438 2.438v24.44c0 1.118-.664 1.74-1.061 2.012s-1.22.664-2.26.262z"/></g></svg>