<svg id="Capa_1" enable-background="new 0 0 512 512" height="512" viewBox="0 0 512 512" width="512" xmlns="http://www.w3.org/2000/svg"><g><path d="m111.978 247.029c4.142 0 7.5-3.357 7.5-7.5s-3.358-7.5-7.5-7.5h-10.868c-4.142 0-7.5 3.357-7.5 7.5v172.112c0 4.143 3.358 7.5 7.5 7.5h10.869c4.142 0 7.5-3.357 7.5-7.5s-3.358-7.5-7.5-7.5h-3.369v-157.112z"/><path d="m182.033 247.029c4.142 0 7.5-3.357 7.5-7.5s-3.358-7.5-7.5-7.5h-10.869c-4.142 0-7.5 3.357-7.5 7.5v172.112c0 4.143 3.358 7.5 7.5 7.5h10.869c4.142 0 7.5-3.357 7.5-7.5s-3.358-7.5-7.5-7.5h-3.369v-157.112z"/><path d="m392.197 247.029c4.143 0 7.5-3.357 7.5-7.5s-3.357-7.5-7.5-7.5h-10.869c-4.143 0-7.5 3.357-7.5 7.5v172.112c0 4.143 3.357 7.5 7.5 7.5h10.869c4.143 0 7.5-3.357 7.5-7.5s-3.357-7.5-7.5-7.5h-3.369v-157.112z"/><path d="m462.252 247.029c4.143 0 7.5-3.357 7.5-7.5s-3.357-7.5-7.5-7.5h-10.869c-4.143 0-7.5 3.357-7.5 7.5v172.112c0 4.143 3.357 7.5 7.5 7.5h10.869c4.143 0 7.5-3.357 7.5-7.5s-3.357-7.5-7.5-7.5h-3.369v-157.112z"/><path d="m348.451 325.586c0-23.102-11.796-43.497-29.678-55.49v-23.067h3.369c4.143 0 7.5-3.357 7.5-7.5s-3.357-7.5-7.5-7.5h-10.869c-4.143 0-7.5 3.357-7.5 7.5v23.058c-6.92-2.434-14.351-3.773-22.093-3.773-11.983 0-23.229 3.189-32.961 8.739v-20.524h3.369c4.142 0 7.5-3.357 7.5-7.5s-3.358-7.5-7.5-7.5h-10.869c-4.142 0-7.5 3.357-7.5 7.5v39.671c-11.63 12.022-18.809 28.377-18.809 46.385s7.179 34.363 18.809 46.385v39.671c0 4.143 3.358 7.5 7.5 7.5h10.869c4.142 0 7.5-3.357 7.5-7.5s-3.358-7.5-7.5-7.5h-3.369v-20.524c9.733 5.55 20.978 8.739 32.961 8.739 7.742 0 15.173-1.339 22.093-3.773v23.058c0 4.143 3.357 7.5 7.5 7.5h10.869c4.143 0 7.5-3.357 7.5-7.5s-3.357-7.5-7.5-7.5h-3.369v-23.067c17.882-11.992 29.678-32.386 29.678-55.488zm-118.541 0c0-28.547 23.224-51.771 51.771-51.771 28.546 0 51.771 23.225 51.771 51.771s-23.225 51.771-51.771 51.771c-28.547-.001-51.771-23.225-51.771-51.771z"/><path d="m296.34 312.474h-14.501l7.718-10.505c2.452-3.338 1.734-8.032-1.604-10.484-3.339-2.454-8.031-1.733-10.484 1.604l-16.49 22.445c-1.674 2.278-1.925 5.305-.647 7.827 1.276 2.523 3.864 4.113 6.691 4.113h14.877l-15.365 21.856c-2.382 3.389-1.566 8.066 1.822 10.449 1.312.922 2.816 1.365 4.307 1.365 2.359-.001 4.683-1.111 6.143-3.188l23.67-33.67c1.609-2.29 1.811-5.286.521-7.771-1.293-2.483-3.86-4.041-6.658-4.041z"/><path d="m504.5 248.507c4.143 0 7.5-3.357 7.5-7.5v-28.456c0-8.696-7.074-15.771-15.771-15.771h-11.866v-9.438c0-8.104-6.594-14.697-14.698-14.697h-62.075l7.021-17.989c.872.33 1.767.49 2.648.49 3 0 5.832-1.812 6.988-4.775 1.497-3.833-.378-8.146-4.186-9.68l7.5-19.216c.14-.358.272-.719.411-1.078.875.332 1.773.493 2.658.493 3 0 5.832-1.812 6.988-4.775 1.507-3.858-.4-8.207-4.26-9.713l-.384-.15c2.241-6.946 4.198-13.98 5.867-21.083l.571.223c.896.35 1.817.516 2.725.516 3 0 5.832-1.812 6.988-4.775 1.507-3.858-.4-8.207-4.26-9.713l-2.965-1.157c.933-5.304 1.714-10.636 2.327-15.991l.71-6.198.394.154c.896.35 1.817.516 2.725.516 3 0 5.832-1.812 6.988-4.775 1.507-3.858-.4-8.207-4.26-9.713l-4.082-1.593 1.901-16.601c.388-3.383-1.553-6.603-4.725-7.84-3.169-1.239-6.779-.185-8.786 2.566l-9.847 13.5-4.082-1.593c-3.858-1.506-8.207.4-9.713 4.26-1.507 3.858.4 8.207 4.26 9.713l.393.153-3.676 5.04c-3.177 4.355-6.214 8.806-9.121 13.339l-2.966-1.158c-3.858-1.508-8.207.401-9.713 4.26-1.507 3.858.4 8.207 4.26 9.713l.571.223c-3.585 6.355-6.91 12.856-9.967 19.484l-.384-.15c-3.858-1.508-8.207.401-9.713 4.26-1.498 3.836.38 8.154 4.194 9.684-.141.357-.288.712-.428 1.07l-7.501 19.217c-3.839-1.453-8.141.451-9.637 4.285-1.497 3.833.378 8.147 4.186 9.68l-14.395 36.881h-44.153v-25.588c4.105-.044 7.419-3.381 7.419-7.496s-3.314-7.452-7.419-7.496v-20.627c0-.384-.008-.769-.009-1.153 4.109-.039 7.428-3.378 7.428-7.496 0-4.143-3.357-7.5-7.5-7.5h-.412c-.438-7.286-1.172-14.55-2.201-21.773h.612c4.143 0 7.5-3.357 7.5-7.5s-3.357-7.5-7.5-7.5h-3.183c-1.059-5.28-2.27-10.53-3.646-15.741l-1.592-6.032h.422c4.143 0 7.5-3.357 7.5-7.5s-3.357-7.5-7.5-7.5h-4.382l-4.265-16.155c-.869-3.298-3.846-5.592-7.252-5.592s-6.383 2.294-7.252 5.586l-4.265 16.155h-4.382c-4.143 0-7.5 3.357-7.5 7.5s3.357 7.5 7.5 7.5h.422l-1.592 6.032c-1.375 5.211-2.586 10.462-3.645 15.741h-3.184c-4.142 0-7.5 3.357-7.5 7.5s3.358 7.5 7.5 7.5h.613c-1.029 7.224-1.763 14.488-2.201 21.773h-.412c-4.142 0-7.5 3.357-7.5 7.5 0 4.118 3.32 7.458 7.428 7.496-.002.385-.009.769-.009 1.153v20.627c-4.104.044-7.419 3.381-7.419 7.496s3.315 7.452 7.419 7.496v25.588h-44.154l-14.395-36.881c3.807-1.533 5.682-5.847 4.186-9.68-1.496-3.832-5.794-5.738-9.637-4.285l-7.5-19.217c-.14-.358-.287-.713-.428-1.07 3.813-1.53 5.691-5.848 4.194-9.684-1.506-3.858-5.853-5.765-9.714-4.26l-.383.15c-3.058-6.628-6.383-13.128-9.968-19.483l.571-.223c3.858-1.506 5.766-5.854 4.26-9.713s-5.854-5.766-9.714-4.26l-2.966 1.158c-2.906-4.533-5.944-8.985-9.121-13.339l-3.676-5.04.394-.154c3.858-1.506 5.766-5.854 4.26-9.713s-5.854-5.765-9.714-4.26l-4.082 1.593-9.848-13.5c-2.007-2.751-5.615-3.806-8.786-2.566-3.172 1.237-5.112 4.457-4.724 7.84l1.901 16.601-4.082 1.593c-3.858 1.506-5.766 5.854-4.26 9.713 1.157 2.964 3.989 4.775 6.989 4.775.907 0 1.83-.166 2.725-.516l.393-.154.71 6.198c.613 5.355 1.394 10.687 2.327 15.991l-2.966 1.158c-3.858 1.506-5.766 5.854-4.26 9.713 1.157 2.964 3.989 4.775 6.989 4.775.907 0 1.83-.166 2.725-.516l.571-.223c1.668 7.103 3.626 14.137 5.867 21.083l-.384.15c-3.858 1.506-5.766 5.854-4.26 9.713 1.157 2.963 3.989 4.775 6.989 4.775.884 0 1.782-.161 2.657-.493.138.358.271.719.41 1.077l7.501 19.217c-3.807 1.533-5.682 5.847-4.186 9.68 1.157 2.963 3.989 4.775 6.989 4.775.881 0 1.776-.16 2.648-.49l7.021 17.989h-8.048c-4.142 0-7.5 3.357-7.5 7.5s3.358 7.5 7.5 7.5h321.641v9.135h-375.365v-9.135h23.737c4.142 0 7.5-3.357 7.5-7.5s-3.358-7.5-7.5-7.5h-24.039c-8.104 0-14.698 6.593-14.698 14.697v9.438h-11.866c-8.696 0-15.771 7.075-15.771 15.771v11.282h-23.007c-15.634.005-28.354 12.725-28.354 28.36v146.796c0 15.635 12.72 28.354 28.354 28.354h23.007v11.283c0 8.503 6.769 15.438 15.199 15.742v13.628c0 6.447 5.245 11.692 11.692 11.692h33.764c5.747 18.69 23.171 32.316 43.721 32.316 4.252 0 8.491-.596 12.597-1.771 3.982-1.141 6.286-5.292 5.146-9.274-1.139-3.982-5.292-6.287-9.274-5.147-2.763.791-5.612 1.192-8.469 1.192-16.946 0-30.732-13.786-30.732-30.732s13.787-30.733 30.732-30.733c16.946 0 30.733 13.787 30.733 30.733 0 4.69-1.084 9.622-3.49 14.221-1.92 3.67-.502 8.202 3.167 10.122 3.67 1.923 8.202.503 10.123-3.167 1.298-2.481 2.359-5.083 3.18-7.76h164.454c5.746 18.691 23.17 32.317 43.72 32.317s37.974-13.626 43.721-32.316h33.764c6.447 0 11.692-5.245 11.692-11.692v-13.628c8.431-.304 15.199-7.238 15.199-15.742v-167.628c0-4.143-3.357-7.5-7.5-7.5s-7.5 3.357-7.5 7.5v167.627c0 .425-.346.771-.771.771-10.778 0-40.776 0-51.636 0-8.323-11.418-21.791-18.857-36.969-18.857s-28.646 7.439-36.969 18.857h-177.948c-8.323-11.418-21.791-18.857-36.97-18.857s-28.646 7.439-36.969 18.857c-10.861 0-40.858 0-51.636 0-.425 0-.771-.346-.771-.771 0-12.855 0-213.131 0-226.07 0-.426.346-.771.771-.771h429.098c.425 0 .771.346.771.771v28.456c-.001 4.142 3.356 7.5 7.499 7.5zm-110.94-141.538 20.439 7.978c-.138.358-.27.717-.409 1.074l-7.499 19.212-20.456-7.984 7.499-19.214c.139-.357.285-.71.426-1.066zm30.987-56.272 5.923-8.12-1.144 9.985c-.465 4.058-1.028 8.104-1.687 12.131l-10.069-3.93c2.243-3.409 4.569-6.765 6.977-10.066zm-14.966 23.05 15.138 5.908c-1.61 7.122-3.521 14.175-5.738 21.134l-19.495-7.609c3.083-6.621 6.455-13.103 10.095-19.433zm-138.871 36.541h21.94c.002.383.009.766.009 1.149v20.623h-21.959v-20.623c.001-.383.008-.766.01-1.149zm8.405-63.686 2.565-9.719 2.565 9.719c1.043 3.949 1.989 7.921 2.839 11.913h-10.808c.85-3.992 1.797-7.964 2.839-11.913zm-5.559 26.913h16.249c1.09 7.219 1.874 14.484 2.338 21.773h-20.926c.465-7.289 1.249-14.553 2.339-21.773zm-123.784 42.506c-.139-.358-.271-.717-.409-1.074l20.438-7.977c.141.356.287.71.426 1.066l7.499 19.213-20.456 7.984zm-15.737-63.459-1.144-9.985 5.923 8.12c2.407 3.3 4.733 6.657 6.976 10.066l-10.069 3.93c-.658-4.027-1.221-8.072-1.686-12.131zm4.607 27.094 15.137-5.908c3.641 6.33 7.012 12.812 10.096 19.433l-19.494 7.609c-2.218-6.96-4.129-14.012-5.739-21.134zm33.231 92.989-9.149-23.439 20.456-7.984 12.265 31.423zm98.828 0v-25.584h21.959v25.584zm97.215 0 12.265-31.423 20.456 7.984-9.149 23.439zm113.885 281.747v10.292h-28.485c-.122-3.547-.645-6.993-1.533-10.292zm-74.177-18.858c16.946 0 30.732 13.787 30.732 30.733s-13.786 30.733-30.732 30.733-30.732-13.786-30.732-30.732 13.785-30.734 30.732-30.734zm-44.16 18.858c-.888 3.299-1.411 6.745-1.533 10.292h-160.501c-.122-3.547-.645-6.993-1.533-10.292zm-251.886 0c-.888 3.299-1.411 6.745-1.533 10.292h-28.485v-10.292zm-83.224-42.054c-7.363 0-13.354-5.991-13.354-13.354v-146.796c0-7.363 5.991-13.354 13.354-13.354h23.007v173.505h-23.007z"/></g></svg>