<svg id="Capa_1" enable-background="new 0 0 512.001 512.001" height="512" viewBox="0 0 512.001 512.001" width="512" xmlns="http://www.w3.org/2000/svg"><g><path d="m487.311 60.235h-150.581c-13.609 0-24.681 11.076-24.681 24.69v113.87c0 24.436-9.519 47.412-26.804 64.697l-33.658 33.659c-11.966 11.966-11.973 31.335.003 43.311 11.938 11.924 31.362 11.924 43.304-.004l12.693-12.694c1.656-1.658 4.462-.492 4.462 1.852v118.89c0 16.884 13.731 30.62 30.61 30.62 5.58 0 10.938-1.486 15.62-4.272v5.973c0 16.751 13.567 31.175 30.646 31.175 16.841 0 30.595-13.63 30.595-30.615v-14.532c4.576 2.726 9.918 4.292 15.62 4.292 16.883 0 30.62-13.658 30.62-30.62v-8.851c4.576 2.726 9.917 4.291 15.619 4.291 16.883 0 30.62-13.658 30.62-30.62v-144.87c0-4.143-3.357-7.5-7.5-7.5s-7.5 3.357-7.5 7.5v144.869c0 8.681-7.033 15.62-15.62 15.62-8.609 0-15.614-7.002-15.619-15.611 0-.004 0-.007 0-.011v-65.685c0-4.143-3.357-7.5-7.5-7.5s-7.5 3.357-7.5 7.5l-.001 100.866c0 8.679-7.032 15.62-15.62 15.62-8.603 0-15.602-6.99-15.619-15.589 0-.009.001-.018.001-.027v-91.75c0-4.143-3.357-7.5-7.5-7.5s-7.5 3.357-7.5 7.5l-.003 132.606c0 8.799-7.25 15.913-16.197 15.604-8.295-.291-15.043-7.542-15.043-16.164l.004-124.326c0-4.143-3.357-7.5-7.5-7.5s-7.5 3.357-7.5 7.5v91.928c0 .026-.004.051-.004.077 0 8.681-7.033 15.62-15.62 15.62-8.607 0-15.61-7.007-15.61-15.62v-118.89c0-15.66-18.992-23.549-30.073-12.453l-12.686 12.687c-6.094 6.086-16.007 6.087-22.097.003-6.106-6.104-6.107-15.987 0-22.094l33.659-33.659c20.117-20.118 31.196-46.861 31.196-75.304v-15.66h169.953v47.354c0 4.143 3.357 7.5 7.5 7.5s7.5-3.357 7.5-7.5c0-16.336 0-129.361 0-145.564 0-13.613-11.075-24.689-24.689-24.689zm-160.261 24.691c0-5.344 4.343-9.69 9.681-9.69h150.58c5.343 0 9.689 4.347 9.689 9.69v48.84h-169.95zm.001 83.21v-19.37h169.949v19.37z"/><path d="m260.41 171.539c-11.938-11.924-31.362-11.921-43.304.003l-12.694 12.695c-1.651 1.654-4.462.497-4.462-1.852v-60.734c0-4.143-3.357-7.5-7.5-7.5s-7.5 3.357-7.5 7.5v60.734c0 15.66 18.996 23.55 30.073 12.454l12.687-12.688c6.094-6.085 16.007-6.088 22.097-.003 6.105 6.103 6.107 15.988 0 22.093l-33.66 33.66c-20.117 20.118-31.196 46.861-31.196 75.304v15.66h-169.95v-222.21c0-8.682 7.032-15.62 15.619-15.62 8.61 0 15.615 7.002 15.62 15.611v.011 65.684c0 4.143 3.357 7.5 7.5 7.5s7.5-3.357 7.5-7.5v-65.666c0-.006.001-.013.001-.019v-35.18c0-8.68 7.032-15.619 15.62-15.619 8.603 0 15.602 6.99 15.619 15.589 0 .009-.001.018-.001.028v91.749c0 4.143 3.357 7.5 7.5 7.5s7.5-3.357 7.5-7.5v-91.689c0-.02.003-.039.003-.058v-40.86c0-8.878 7.35-15.924 16.196-15.605 8.295.292 15.043 7.543 15.043 16.165v32.258c0 .02-.003.039-.003.058v92.009c0 4.143 3.357 7.5 7.5 7.5s7.5-3.357 7.5-7.5v-91.947c0-.02.003-.039.003-.058 0-8.68 7.035-15.62 15.621-15.62 8.607 0 15.609 7.007 15.609 15.62v28.169c0 4.143 3.357 7.5 7.5 7.5s7.5-3.357 7.5-7.5v-28.169c0-16.884-13.731-30.62-30.609-30.62-5.581 0-10.938 1.486-15.621 4.272v-5.973c0-16.607-13.241-30.583-29.512-31.155-17.342-.626-31.729 13.219-31.729 30.596v14.531c-4.576-2.725-9.918-4.291-15.62-4.291-16.85 0-30.62 13.621-30.62 30.619v8.852c-4.576-2.725-9.918-4.291-15.62-4.291-16.884 0-30.619 13.658-30.619 30.62v320.42c0 13.614 11.075 24.689 24.689 24.689h150.58c13.608 0 24.68-11.075 24.68-24.689 0-35.732 0-78.142 0-113.87 0-24.436 9.519-47.412 26.804-64.696l33.66-33.66c11.939-11.941 11.939-31.368-.004-43.311zm-85.14 265.227h-150.58c-5.343 0-9.689-4.347-9.689-9.689v-48.84h23.744c4.143 0 7.5-3.357 7.5-7.5s-3.357-7.5-7.5-7.5h-23.744v-19.37h169.949v19.37h-116.218c-4.143 0-7.5 3.357-7.5 7.5s3.357 7.5 7.5 7.5h116.218v48.84c0 5.342-4.342 9.689-9.68 9.689z"/></g></svg>