<svg id="Capa_1" enable-background="new 0 0 512.001 512.001" height="512" viewBox="0 0 512.001 512.001" width="512" xmlns="http://www.w3.org/2000/svg"><g><path d="m256 76.109c-108.954 0-192.773 95.97-178.287 204.059 11.846 88.245 87.471 155.737 178.287 155.737 99.196 0 179.898-80.702 179.898-179.898 0-32.922-8.977-65.129-25.96-93.141-2.147-3.542-6.761-4.672-10.302-2.524-3.542 2.147-4.672 6.76-2.524 10.302 15.561 25.666 23.786 55.185 23.786 85.363 0 90.926-73.974 164.898-164.898 164.898-80.028 0-147.546-57.251-162.041-134.235h34.591c7.824 0 14.972-3.965 19.119-10.605 2.194-3.513 1.125-8.14-2.389-10.334-3.512-2.192-8.139-1.125-10.334 2.389-1.389 2.224-3.78 3.551-6.396 3.551h-36.697c-4.98-52.956 15.117-105.8 58.008-141.846l24.042 35.873c1.411 2.104 1.674 4.757.703 7.096l-28.359 68.37c-1.587 3.826.229 8.215 4.054 9.802 3.826 1.585 8.215-.228 9.802-4.054l28.359-68.371c2.898-6.987 2.114-14.91-2.098-21.194l-24.585-36.681c27.695-19.358 60.119-29.554 94.222-29.554 47.261 0 92.327 20.34 123.644 55.805 2.741 3.104 7.481 3.398 10.586.658 3.105-2.742 3.399-7.481.658-10.586-34.163-38.692-83.328-60.88-134.889-60.88z"/><path d="m506.982 267.488c3.189-2.953 5.019-7.14 5.019-11.485 0-4.347-1.829-8.533-5.018-11.486l-29.375-27.205c-.215-.199-.271-.521-.138-.781l18.338-35.574c1.996-3.87 2.286-8.437.796-12.528-1.489-4.092-4.646-7.402-8.661-9.084l-36.916-15.465c-.271-.113-.434-.395-.396-.686l5.015-39.722c.545-4.313-.746-8.697-3.541-12.027-2.797-3.331-6.892-5.361-11.236-5.571l-39.987-1.927c-.293-.015-.543-.224-.607-.51l-8.811-39.047c-.958-4.244-3.668-7.927-7.435-10.105-3.766-2.179-8.31-2.689-12.469-1.402l-38.242 11.843c-.278.086-.585-.026-.743-.271l-21.683-33.655c-2.357-3.658-6.168-6.188-10.454-6.94-4.283-.754-8.729.328-12.189 2.963l-31.853 24.251c-.232.178-.558.179-.792-.001l-31.85-24.249c-3.462-2.636-7.902-3.72-12.19-2.964-4.286.753-8.097 3.282-10.454 6.94l-21.683 33.653c-.159.244-.462.356-.744.271l-38.24-11.843c-4.157-1.287-8.701-.776-12.468 1.401-3.768 2.178-6.478 5.862-7.436 10.106l-8.81 39.044c-.065.287-.315.497-.608.512l-39.989 1.927c-4.343.21-8.438 2.24-11.233 5.569-2.796 3.33-4.088 7.714-3.544 12.029l5.017 39.722c.036.291-.127.572-.398.686l-36.914 15.465c-4.017 1.683-7.174 4.994-8.663 9.086s-1.198 8.658.797 12.527l18.338 35.575c.135.26.077.581-.138.779l-29.375 27.207c-3.19 2.953-5.019 7.14-5.019 11.486s1.829 8.532 5.018 11.485l29.375 27.205c.215.199.271.521.138.781l-18.34 35.575c-1.994 3.87-2.284 8.437-.794 12.528 1.489 4.091 4.647 7.401 8.661 9.083l36.916 15.465c.271.113.433.396.396.687l-5.017 39.722c-1.14 9.042 5.676 17.159 14.779 17.597l39.987 1.928c.293.015.543.225.607.51l8.811 39.047c.958 4.244 3.668 7.927 7.435 10.105 3.766 2.179 8.311 2.689 12.469 1.402l38.24-11.843c.278-.086.586.024.745.271l21.683 33.652c4.932 7.652 15.371 9.512 22.644 3.977l31.851-24.251c.234-.179.56-.177.794.001l31.85 24.249c7.253 5.524 17.704 3.693 22.644-3.976l21.683-33.653c.159-.246.466-.356.745-.271l38.24 11.843c4.155 1.285 8.7.776 12.468-1.401s6.478-5.862 7.436-10.106l8.811-39.046c.064-.286.314-.495.606-.51l6.652-.32c4.138-.199 7.33-3.715 7.131-7.852s-3.696-7.311-7.852-7.131l-6.653.32c-7.005.338-12.975 5.352-14.518 12.19l-8.811 39.046c-.088.387-.479.594-.833.481l-38.239-11.843c-6.691-2.072-14.004.592-17.793 6.475l-21.684 33.653c-.21.329-.642.392-.946.166l-31.852-24.251c-5.584-4.25-13.383-4.251-18.965.001l-31.851 24.249c-.306.232-.74.159-.948-.166l-21.683-33.651c-3.79-5.884-11.104-8.548-17.792-6.476l-38.239 11.842c-.066.021-.271.088-.523-.059-.248-.144-.295-.354-.311-.422l-8.812-39.048c-1.544-6.839-7.514-11.852-14.517-12.189l-39.988-1.928c-.383-.021-.663-.348-.619-.736l5.017-39.721c.877-6.951-3.022-13.695-9.482-16.4l-36.917-15.466c-.065-.027-.264-.11-.361-.38-.099-.27 0-.461.032-.523l18.339-35.574c3.21-6.226 1.862-13.898-3.276-18.659l-29.377-27.204c-.052-.048-.21-.194-.21-.479 0-.286.158-.433.211-.48l29.375-27.207c5.14-4.761 6.487-12.434 3.276-18.658l-18.338-35.574c-.032-.063-.131-.255-.033-.524s.297-.353.362-.38l36.915-15.465c6.462-2.706 10.361-9.45 9.484-16.4l-5.016-39.721c-.009-.07-.036-.285.148-.505s.399-.229.47-.233l39.988-1.927c7.003-.338 12.973-5.351 14.518-12.191l8.811-39.045c.016-.068.062-.279.311-.423.25-.144.456-.079.522-.059l38.239 11.843c6.686 2.067 14.002-.591 17.792-6.475l21.683-33.652c.038-.06.155-.241.438-.291.285-.051.453.081.51.123l31.849 24.249c5.585 4.256 13.385 4.255 18.968.001l31.852-24.25c.055-.043.224-.175.509-.123.283.05.4.231.438.291l21.683 33.651c3.79 5.884 11.107 8.547 17.791 6.476l38.24-11.842c.067-.021.271-.087.523.059.248.144.295.354.311.422l8.811 39.046c1.544 6.84 7.514 11.854 14.518 12.191l39.986 1.927c.071.004.287.014.472.233.184.22.157.434.147.504l-5.015 39.722c-.878 6.95 3.021 13.694 9.482 16.4l36.917 15.465c.065.027.264.11.361.379.098.27-.001.461-.033.524l-18.338 35.573c-3.21 6.227-1.862 13.899 3.276 18.66l29.376 27.206c.052.048.21.194.21.48 0 .285-.158.432-.211.479l-29.375 27.207c-5.139 4.76-6.486 12.433-3.276 18.659l18.338 35.573c.032.063.131.255.033.524s-.297.353-.362.38l-36.916 15.465c-6.461 2.707-10.36 9.451-9.482 16.4l5.015 39.721c.047.373-.223.716-.621.737l-2.883.14c-4.138.2-7.329 3.717-7.129 7.854.2 4.138 3.732 7.342 7.854 7.129l2.882-.14c9.103-.438 15.921-8.553 14.779-17.598l-5.016-39.722c-.036-.291.127-.573.396-.686l36.916-15.465c4.017-1.683 7.174-4.994 8.663-9.086s1.198-8.658-.797-12.527l-18.337-35.573c-.135-.261-.079-.582.137-.781z"/><path d="m256 206.149c-27.558 0-49.855 22.468-49.855 49.857 0 27.561 22.461 49.849 49.855 49.849 27.459 0 49.856-22.381 49.856-49.849 0-27.423-22.3-49.857-49.856-49.857zm0 84.703c-19.161 0-34.853-15.606-34.853-34.85 0-19.243 15.683-34.852 34.853-34.852 19.242 0 34.854 15.654 34.854 34.852 0 19.27-15.693 34.85-34.854 34.85z"/></g></svg>