<svg id="Capa_1" enable-background="new 0 0 512 512" height="512" viewBox="0 0 512 512" width="512" xmlns="http://www.w3.org/2000/svg"><g><path d="m269.321 415.778c4.143 0 7.5-3.357 7.5-7.5s-3.357-7.5-7.5-7.5h-26.641c-4.143 0-7.5 3.357-7.5 7.5s3.357 7.5 7.5 7.5z"/><path d="m217.062 435.861c0 4.143 3.357 7.5 7.5 7.5h62.876c4.143 0 7.5-3.357 7.5-7.5s-3.357-7.5-7.5-7.5h-62.876c-4.142 0-7.5 3.358-7.5 7.5z"/><path d="m369.748 367.823c-4.143 0-7.5 3.357-7.5 7.5v31.137c0 4.143 3.357 7.5 7.5 7.5h27.457c4.143 0 7.5-3.357 7.5-7.5v-31.137c0-4.143-3.357-7.5-7.5-7.5zm19.957 31.137h-12.457v-16.137h12.457z"/><path d="m453.95 319.438h-5.81v-65.02c0-4.107-3.165-7.688-7.27-7.811-4.247-.127-7.73 3.278-7.73 7.497v65.334h-64.378c-1.538 0-3.062-.232-4.531-.687-4.326-1.342-20.21-6.093-82.366-24.957l82.919-25.123c2.872-.87 5.131-3.263 5.532-6.237.501-3.712-1.771-7.146-5.256-8.202l-83.195-25.207 82.919-25.123c2.872-.87 5.131-3.263 5.532-6.237.501-3.712-1.771-7.146-5.256-8.202l-83.194-25.205 82.13-24.883h39.208c7.679 0 13.903-6.225 13.903-13.903v-24.502c0-7.679-6.225-13.903-13.903-13.903h-6.517v-30.196h1.258c4.107 0 7.688-3.165 7.811-7.27.127-4.247-3.278-7.73-7.497-7.73h-1.572v-20.194h1.258c4.107 0 7.688-3.165 7.811-7.27.127-4.247-3.278-7.73-7.497-7.73h-72.318c-.408-3.755-3.587-6.677-7.451-6.677s-7.042 2.922-7.453 6.677h-110.075c-.41-3.755-3.588-6.677-7.452-6.677s-7.042 2.922-7.453 6.677h-72.003c-4.107 0-7.688 3.165-7.811 7.27-.127 4.247 3.278 7.73 7.497 7.73h1.572v20.194h-1.258c-4.107 0-7.688 3.165-7.811 7.27-.127 4.247 3.278 7.73 7.497 7.73h1.572v30.194h-6.518c-7.678 0-13.902 6.224-13.902 13.902v24.503c0 7.679 6.225 13.903 13.903 13.903h39.208l82.13 24.883-82.918 25.121c-2.872.87-5.131 3.263-5.532 6.237-.501 3.712 1.771 7.146 5.256 8.202l83.195 25.207-82.919 25.123c-2.872.87-5.131 3.263-5.532 6.237-.501 3.712 1.771 7.146 5.256 8.202l83.195 25.207c-71.077 21.571-81.652 24.691-83.619 25.356-.553.187-1.13.288-1.714.288h-15.755c-4.107 0-7.688 3.165-7.811 7.27-.127 4.247 3.278 7.73 7.497 7.73h320.822v10.837c-17.438 0-371.295 0-387.111 0v-10.837h35.988c4.107 0 7.688-3.165 7.811-7.27.127-4.247-3.278-7.73-7.497-7.73h-12.612v-65.02c0-4.107-3.165-7.688-7.27-7.811-4.247-.127-7.73 3.278-7.73 7.497v65.334h-13.083c-5.857 0-10.605 4.748-10.605 10.605v19.626c0 5.857 4.748 10.605 10.605 10.605h5.81v102.482c0 8.064 6.537 14.602 14.602 14.602h29.464c3.415 19.65 20.579 34.642 41.19 34.642s37.775-14.992 41.19-34.642h131.39c3.415 19.65 20.579 34.642 41.19 34.642s37.775-14.992 41.19-34.642h29.464c8.064 0 14.601-6.537 14.601-14.601v-30.007c0-4.107-3.165-7.688-7.27-7.811-4.247-.127-7.73 3.278-7.73 7.497v29.922h-29.18c-3.674-19.332-20.689-33.997-41.075-33.997s-37.4 14.665-41.075 33.997h-131.621c-3.674-19.332-20.689-33.997-41.075-33.997s-37.4 14.665-41.075 33.997h-29.181v-43.542h33.209c8.801 0 15.936-7.135 15.936-15.936v-42.606h305.137v41.861c0 4.107 3.165 7.688 7.27 7.811 4.247.127 7.73-3.278 7.73-7.497v-42.175h5.811c5.857 0 10.604-4.748 10.604-10.604v-19.627c0-5.855-4.749-10.603-10.606-10.603zm-72.262-232.373h-55.698v-30.194h55.698zm0-45.194h-55.698v-20.194h55.698zm-70.698 0h-109.98v-20.194h109.98zm-180.678-20.194h55.697v20.194h-55.697zm0 35.194h55.697v30.194h-55.697zm-20.419 45.194h131.114c4.143 0 7.5-3.357 7.5-7.5s-3.357-7.5-7.5-7.5h-39.997v-30.194h109.98v30.194h-39.996c-4.143 0-7.5 3.357-7.5 7.5s3.357 7.5 7.5 7.5h131.114v22.309c-4.788 0-282.928 0-292.216 0v-22.309zm89.844 37.309h112.528l-56.265 17.046zm-24.757 57.266 81.02-24.547 81.02 24.546-81.02 24.549zm0 64.769 81.02-24.548 81.02 24.548-81.02 24.548zm81.02 40.221 58.774 17.807h-117.547zm106.886 141.731c14.677 0 26.633 11.853 26.811 26.489v.008c0 .008.001.016.001.024.001.1.008.198.008.298 0 14.788-12.031 26.819-26.819 26.819s-26.819-12.031-26.819-26.819 12.03-26.819 26.818-26.819zm-213.771 0c14.677 0 26.633 11.853 26.811 26.489v.008c0 .008.001.016.001.024.001.1.008.198.008.298 0 14.788-12.031 26.819-26.819 26.819s-26.819-12.031-26.819-26.819 12.03-26.819 26.818-26.819zm-36.111-40.48c0 .516-.419.936-.935.936h-33.21v-43.542h34.145z"/></g></svg>