<svg id="Capa_1" enable-background="new 0 0 512 512" height="512" viewBox="0 0 512 512" width="512" xmlns="http://www.w3.org/2000/svg"><g><path d="m499.365 276.812-22.757-7.234v-67.733c0-10.764-8.757-19.521-19.521-19.521h-49.95c-4.143 0-7.5 3.357-7.5 7.5s3.357 7.5 7.5 7.5h49.95c2.492 0 4.521 2.028 4.521 4.521v10.588h-55.495c-15.179 0-27.528 12.35-27.528 27.528v15.075c0 15.179 12.35 27.528 27.528 27.528h61.835l26.874 8.544c1.303.413 2.178 1.61 2.178 2.978v11.727h-7.191c-4.143 0-7.5 3.357-7.5 7.5s3.357 7.5 7.5 7.5h7.191v9.628c0 1.723-1.402 3.125-3.126 3.125h-26.047c-9.834-21.605-31.433-35.914-55.682-35.914-24.219 0-45.835 14.28-55.682 35.914h-21.709c0-9.393 0-85.562 0-98.729 0-20.684 16.828-37.512 37.512-37.512h4.887c4.143 0 7.5-3.357 7.5-7.5s-3.357-7.5-7.5-7.5h-4.887c-28.955 0-52.512 23.557-52.512 52.512v43.042h-16.351c-8.447 0-15.319 6.872-15.319 15.319v12.615h-50.963v-16.934c42.326-4.829 75.32-40.848 75.32-84.445v-1.679c0-46.877-38.138-85.015-85.015-85.015h-29.335v-12.631c0-7.209-5.865-13.074-13.075-13.074h-57.589c-7.209 0-13.075 5.865-13.075 13.074v12.631h-29.338c-17.413 0-34.165 5.245-48.445 15.167-3.402 2.363-4.244 7.037-1.88 10.438 2.364 3.402 7.038 4.244 10.438 1.88 11.756-8.168 25.549-12.485 39.887-12.485h43.72v141.708h-43.72c-38.606 0-70.014-31.409-70.014-70.015v-1.679c0-13.554 3.896-26.717 11.267-38.066 2.256-3.474 1.269-8.119-2.205-10.375-3.474-2.255-8.118-1.269-10.375 2.205-8.954 13.787-13.687 29.775-13.687 46.236v1.679c0 43.598 32.994 79.617 75.32 84.446v16.933h-28.102c-15.715 0-30.019 8.643-37.329 22.555l-4.839 9.21c-1.221 2.325-1.138 5.119.22 7.367 1.358 2.247 3.793 3.621 6.419 3.621h44.434c-.565 3.333-.875 6.752-.875 10.243 0 33.694 27.454 61.157 61.157 61.157 33.693 0 61.158-27.452 61.158-61.157 0-3.491-.31-6.91-.875-10.243h22.852v11.146c0 9.01 7.33 16.34 16.34 16.34h14.523c4.142 0 7.5-3.357 7.5-7.5s-3.358-7.5-7.5-7.5h-14.523c-.739 0-1.34-.601-1.34-1.34v-11.145h85.211v11.145c0 .739-.601 1.34-1.34 1.34h-38.021c-4.142 0-7.5 3.357-7.5 7.5s3.358 7.5 7.5 7.5h38.021c9.01 0 16.34-7.33 16.34-16.34v-11.146h12.5 24.609c-.565 3.333-.875 6.752-.875 10.243 0 33.694 27.454 61.157 61.157 61.157 33.694 0 61.157-27.454 61.157-61.157 0-3.491-.31-6.91-.875-10.243h21.447c9.995 0 18.126-8.131 18.126-18.125v-36.354c.003-7.931-5.076-14.874-12.632-17.274zm-105.781-21.777v-15.075c0-6.908 5.62-12.528 12.528-12.528h55.495v40.132h-55.495c-6.907 0-12.528-5.62-12.528-12.529zm-90.501 38.162c0-.176.144-.319.319-.319h16.351v12.935h-16.67zm-156.213 12.615c-3.792-2.188-7.831-3.991-12.077-5.333v-11.032h1.441 41.145.267v16.364h-30.776zm14.401 60.496h.674c-1.173 7.143-3.991 13.734-8.052 19.38l-.46-.459c-2.93-2.928-7.677-2.929-10.607.001-2.929 2.929-2.928 7.678 0 10.606l.459.459c-5.646 4.06-12.237 6.879-19.38 8.051v-.673c0-4.143-3.358-7.5-7.5-7.5s-7.5 3.357-7.5 7.5v.673c-7.143-1.173-13.734-3.992-19.38-8.051l.459-.459c2.929-2.93 2.929-7.678 0-10.607-2.929-2.928-7.678-2.928-10.606 0l-.459.459c-4.06-5.646-6.879-12.237-8.051-19.38h.673c4.142 0 7.5-3.357 7.5-7.5s-3.358-7.5-7.5-7.5h-.673c1.173-7.143 3.991-13.734 8.051-19.38l.459.459c1.464 1.464 3.384 2.196 5.303 2.196s3.839-.732 5.303-2.196c2.929-2.93 2.929-7.678 0-10.607l-.459-.459c5.646-4.06 12.237-6.878 19.38-8.051v.673c0 4.143 3.358 7.5 7.5 7.5s7.5-3.357 7.5-7.5v-.673c7.143 1.172 13.734 3.991 19.38 8.051l-.459.459c-2.929 2.929-2.929 7.678 0 10.606 1.465 1.465 3.384 2.197 5.304 2.197 1.919 0 3.839-.732 5.303-2.196l.46-.459c4.06 5.646 6.879 12.238 8.052 19.38h-.674c-4.142 0-7.5 3.357-7.5 7.5s3.358 7.5 7.5 7.5zm-44.865-68.657c-9.327 0-18.169 2.107-26.086 5.857v-14.06h29.473v8.301c-1.122-.062-2.25-.098-3.387-.098zm53.473-85.61h-26.145v-16.896h26.145zm0-31.895h-26.145v-16.895h26.145zm-26.145 46.895h26.145v16.896h-26.145zm48.912 62.407h29.474v16.364h-29.474zm104.793-86.694v1.679c0 38.606-31.408 70.015-70.015 70.015h-42.545v-141.708h42.545c38.607 0 70.015 31.408 70.015 70.014zm-168.089-95.72h53.739v10.705h-5.71-41.145-6.885v-10.705zm40.529 25.706v15.512h-26.145v-15.512zm-26.145 126.197h26.145v15.511h-26.145zm-119.545 74.628c4.944-7.915 13.591-12.753 23.029-12.753h21.319c-3.098 3.895-5.728 8.173-7.813 12.753zm140.087-12.753h155.477v12.753h-147.664c-2.085-4.58-4.715-8.859-7.813-12.753zm292.733 45.496h.673c-1.173 7.143-3.991 13.734-8.051 19.38l-.459-.459c-2.93-2.928-7.678-2.928-10.607 0-2.929 2.93-2.929 7.678 0 10.607l.459.459c-5.646 4.06-12.237 6.878-19.38 8.051v-.673c0-4.143-3.357-7.5-7.5-7.5s-7.5 3.357-7.5 7.5v.673c-7.143-1.173-13.734-3.991-19.38-8.051l.459-.459c2.929-2.93 2.929-7.678 0-10.607-2.93-2.928-7.678-2.928-10.607 0l-.459.459c-4.06-5.646-6.879-12.237-8.051-19.38h.673c4.143 0 7.5-3.357 7.5-7.5s-3.357-7.5-7.5-7.5h-.673c1.172-7.143 3.991-13.734 8.051-19.38l.459.459c1.465 1.464 3.385 2.196 5.304 2.196s3.839-.732 5.304-2.196c2.929-2.93 2.929-7.678 0-10.607l-.459-.459c5.646-4.06 12.237-6.878 19.38-8.051v.673c0 4.143 3.357 7.5 7.5 7.5s7.5-3.357 7.5-7.5v-.673c7.143 1.172 13.734 3.991 19.38 8.051l-.459.459c-2.929 2.93-2.929 7.678 0 10.607 1.465 1.464 3.385 2.196 5.304 2.196s3.839-.732 5.304-2.196l.459-.459c4.06 5.646 6.879 12.237 8.051 19.38h-.673c-4.143 0-7.5 3.357-7.5 7.5s3.356 7.5 7.498 7.5z"/><path d="m412.144 334.173c-13.584 0-24.635 11.051-24.635 24.635s11.051 24.635 24.635 24.635 24.635-11.051 24.635-24.635-11.051-24.635-24.635-24.635zm0 34.27c-5.312 0-9.635-4.322-9.635-9.635s4.322-9.635 9.635-9.635 9.635 4.322 9.635 9.635-4.322 9.635-9.635 9.635z"/><path d="m116.406 334.173c-13.583 0-24.635 11.051-24.635 24.635s11.051 24.635 24.635 24.635 24.635-11.051 24.635-24.635-11.051-24.635-24.635-24.635zm0 34.27c-5.312 0-9.635-4.322-9.635-9.635s4.322-9.635 9.635-9.635 9.635 4.322 9.635 9.635-4.322 9.635-9.635 9.635z"/></g></svg>