<svg id="Capa_1" enable-background="new 0 0 512 512" height="512" viewBox="0 0 512 512" width="512" xmlns="http://www.w3.org/2000/svg"><g><path d="m130.837 376.436c4.143 0 7.5-3.357 7.5-7.5s-3.357-7.5-7.5-7.5h-8.646c-4.143 0-7.5 3.357-7.5 7.5v81.394c0 4.143 3.357 7.5 7.5 7.5h8.646c4.143 0 7.5-3.357 7.5-7.5s-3.357-7.5-7.5-7.5h-1.146v-66.394z"/><path d="m182.631 376.436c4.143 0 7.5-3.357 7.5-7.5s-3.357-7.5-7.5-7.5h-8.646c-4.143 0-7.5 3.357-7.5 7.5v81.394c0 4.143 3.357 7.5 7.5 7.5h8.646c4.143 0 7.5-3.357 7.5-7.5s-3.357-7.5-7.5-7.5h-1.146v-66.394z"/><path d="m234.426 376.436c4.143 0 7.5-3.357 7.5-7.5s-3.357-7.5-7.5-7.5h-8.646c-4.143 0-7.5 3.357-7.5 7.5v81.394c0 4.143 3.357 7.5 7.5 7.5h8.646c4.143 0 7.5-3.357 7.5-7.5s-3.357-7.5-7.5-7.5h-1.146v-66.394z"/><path d="m286.22 376.436c4.143 0 7.5-3.357 7.5-7.5s-3.357-7.5-7.5-7.5h-8.646c-4.143 0-7.5 3.357-7.5 7.5v81.394c0 4.143 3.357 7.5 7.5 7.5h8.646c4.143 0 7.5-3.357 7.5-7.5s-3.357-7.5-7.5-7.5h-1.146v-66.394z"/><path d="m338.015 376.436c4.143 0 7.5-3.357 7.5-7.5s-3.357-7.5-7.5-7.5h-8.646c-4.143 0-7.5 3.357-7.5 7.5v81.394c0 4.143 3.357 7.5 7.5 7.5h8.646c4.143 0 7.5-3.357 7.5-7.5s-3.357-7.5-7.5-7.5h-1.146v-66.394z"/><path d="m389.809 376.436c4.143 0 7.5-3.357 7.5-7.5s-3.357-7.5-7.5-7.5h-8.646c-4.143 0-7.5 3.357-7.5 7.5v81.394c0 4.143 3.357 7.5 7.5 7.5h8.646c4.143 0 7.5-3.357 7.5-7.5s-3.357-7.5-7.5-7.5h-1.146v-66.394z"/><path d="m130.837 173.318c4.143 0 7.5-3.357 7.5-7.5s-3.357-7.5-7.5-7.5h-8.646c-4.143 0-7.5 3.357-7.5 7.5v81.394c0 4.143 3.357 7.5 7.5 7.5h8.646c4.143 0 7.5-3.357 7.5-7.5s-3.357-7.5-7.5-7.5h-1.146v-66.394z"/><path d="m182.631 173.318c4.143 0 7.5-3.357 7.5-7.5s-3.357-7.5-7.5-7.5h-8.646c-4.143 0-7.5 3.357-7.5 7.5v81.394c0 4.143 3.357 7.5 7.5 7.5h8.646c4.143 0 7.5-3.357 7.5-7.5s-3.357-7.5-7.5-7.5h-1.146v-66.394z"/><path d="m234.426 173.318c4.143 0 7.5-3.357 7.5-7.5s-3.357-7.5-7.5-7.5h-8.646c-4.143 0-7.5 3.357-7.5 7.5v81.394c0 4.143 3.357 7.5 7.5 7.5h8.646c4.143 0 7.5-3.357 7.5-7.5s-3.357-7.5-7.5-7.5h-1.146v-66.394z"/><path d="m286.22 173.318c4.143 0 7.5-3.357 7.5-7.5s-3.357-7.5-7.5-7.5h-8.646c-4.143 0-7.5 3.357-7.5 7.5v81.394c0 4.143 3.357 7.5 7.5 7.5h8.646c4.143 0 7.5-3.357 7.5-7.5s-3.357-7.5-7.5-7.5h-1.146v-66.394z"/><path d="m338.015 173.318c4.143 0 7.5-3.357 7.5-7.5s-3.357-7.5-7.5-7.5h-8.646c-4.143 0-7.5 3.357-7.5 7.5v81.394c0 4.143 3.357 7.5 7.5 7.5h8.646c4.143 0 7.5-3.357 7.5-7.5s-3.357-7.5-7.5-7.5h-1.146v-66.394z"/><path d="m389.809 173.318c4.143 0 7.5-3.357 7.5-7.5s-3.357-7.5-7.5-7.5h-8.646c-4.143 0-7.5 3.357-7.5 7.5v81.394c0 4.143 3.357 7.5 7.5 7.5h8.646c4.143 0 7.5-3.357 7.5-7.5s-3.357-7.5-7.5-7.5h-1.146v-66.394z"/><path d="m504.5 497h-62.025v-154.929c0-4.143-3.357-7.5-7.5-7.5h-357.951c-4.143 0-7.5 3.357-7.5 7.5v52.184c0 4.143 3.357 7.5 7.5 7.5s7.5-3.357 7.5-7.5v-44.684h342.95v119.354h-342.95v-44.683c0-4.143-3.357-7.5-7.5-7.5s-7.5 3.357-7.5 7.5v72.758h-62.024c-4.143 0-7.5 3.357-7.5 7.5s3.357 7.5 7.5 7.5h497c4.143 0 7.5-3.357 7.5-7.5s-3.357-7.5-7.5-7.5zm-77.025-13.074v13.073h-342.951v-13.073z"/><path d="m77.024 308.883h278.474c4.143 0 7.5-3.357 7.5-7.5s-3.357-7.5-7.5-7.5h-270.974v-13.074h342.95v13.074h-41.989c-4.143 0-7.5 3.357-7.5 7.5s3.357 7.5 7.5 7.5h49.489c4.143 0 7.5-3.357 7.5-7.5v-162.428c0-4.143-3.357-7.5-7.5-7.5h-20.885l-136.411-62.486c.328-1.53.505-3.116.505-4.743 0-4.143-3.357-7.5-7.5-7.5-3.523 0-6.47 2.432-7.275 5.706l-4.285-1.963c-1.981-.909-4.263-.909-6.246 0l-4.735 2.169c.733-3.433 3.786-6.017 7.435-6.017 4.143 0 7.5-3.357 7.5-7.5v-10.951h22.861c6.486 0 11.763-5.276 11.763-11.762v-14.646c0-6.486-5.276-11.762-11.763-11.762h-59.878c-6.486 0-11.763 5.276-11.763 11.762v14.646c0 6.485 5.276 11.762 11.763 11.762h22.017v4.731c-8.789 3.1-15.104 11.488-15.104 21.325 0 1.751.207 3.455.586 5.092l-135.649 62.137h-20.886c-4.143 0-7.5 3.357-7.5 7.5v162.428c0 4.142 3.358 7.5 7.5 7.5zm152.274-293.883h53.403v8.17h-53.403zm-144.774 131.455h93.433c4.143 0 7.5-3.357 7.5-7.5s-3.357-7.5-7.5-7.5h-44.031l107.803-49.381c3.829 2.978 8.633 4.758 13.848 4.758 5.357 0 10.282-1.877 14.16-5.002l108.336 49.625h-170.13c-4.143 0-7.5 3.357-7.5 7.5s3.357 7.5 7.5 7.5h219.531v119.354h-342.95z"/></g></svg>