<svg id="Capa_1" enable-background="new 0 0 512 512" height="512" viewBox="0 0 512 512" width="512" xmlns="http://www.w3.org/2000/svg"><g><path d="m494.403 394.459h-7.603v-111.343c0-6.863-5.583-12.446-12.446-12.446h-39.975v-58.361c0-6.862-5.583-12.445-12.446-12.445h-14.363c-4.143 0-7.5 3.357-7.5 7.5s3.357 7.5 7.5 7.5h11.81v55.807h-.624c-18.331 0-140.128 0-155.255 0v-55.807h56.246v22.727c0 6.99 5.687 12.677 12.677 12.677h18.033c6.99 0 12.677-5.687 12.677-12.677v-22.727h14.45c4.143 0 7.5-3.357 7.5-7.5s-3.357-7.5-7.5-7.5c-10.7 0-17.933 0-28.644 0v-144.676c0-8.598-6.995-15.593-15.593-15.593-22.799 0-132.149 0-154.692 0-8.599 0-15.594 6.995-15.594 15.593v27.132c0 4.143 3.357 7.5 7.5 7.5s7.5-3.357 7.5-7.5v-27.132c0-.327.267-.593.594-.593h53.043v28.935c0 8.157 6.636 14.793 14.793 14.793h19.02c8.157 0 14.794-6.636 14.794-14.793v-28.935h53.043c.327 0 .593.266.593.593v144.676c-54.461 0-108.581 0-155.879 0v-87.556c0-4.143-3.357-7.5-7.5-7.5s-7.5 3.357-7.5 7.5v87.556c-8.606 0-60.095 0-72.993 0-6.862 0-12.445 5.583-12.445 12.446v58.36h-39.978c-6.862 0-12.445 5.583-12.445 12.446v111.343h-7.604c-9.703 0-17.597 7.894-17.597 17.597v24.762c0 4.143 3.357 7.5 7.5 7.5h14.82v10.958c0 9.445 7.685 17.13 17.13 17.13h77.565c9.445 0 17.13-7.685 17.13-17.13v-10.958h65.942v10.958c0 9.445 7.685 17.13 17.13 17.13h23.789c4.143 0 7.5-3.357 7.5-7.5s-3.357-7.5-7.5-7.5h-23.789c-1.175 0-2.13-.955-2.13-2.13v-10.958h81.825v10.958c0 1.175-.955 2.13-2.13 2.13h-23.789c-4.143 0-7.5 3.357-7.5 7.5s3.357 7.5 7.5 7.5h23.789c9.445 0 17.13-7.685 17.13-17.13v-10.958h65.942v10.958c0 9.445 7.685 17.13 17.13 17.13h77.565c9.445 0 17.13-7.685 17.13-17.13v-10.958h14.821c4.143 0 7.5-3.357 7.5-7.5v-24.762c0-9.703-7.894-17.597-17.597-17.597zm-229.099-311.137h-18.606v-28.727h18.606zm206.496 311.137h-133.866v-108.789h45.545v30.854c0 6.604 5.372 11.976 11.976 11.976h18.825c6.604 0 11.976-5.372 11.976-11.976v-30.854h45.545v108.789zm-60.545-108.789v27.829h-12.776v-27.829zm-88.321 108.789h-133.867v-108.789h45.545v30.854c0 6.604 5.372 11.976 11.976 11.976h18.825c6.604 0 11.976-5.372 11.976-11.976v-30.854h45.545zm-60.545-108.789v27.829h-12.776v-27.829zm85.744-50.403h-13.387v-20.403h13.387zm-184.265-20.404h13.386v20.403h-13.386zm-71.246 0h56.246v22.727c0 6.99 5.687 12.677 12.676 12.677h18.033c6.99 0 12.677-5.687 12.677-12.677v-22.727h56.246v55.807c-55.453 0-108.533 0-155.878 0zm8.124 70.807h12.776v27.829h-12.776zm-60.545 0h45.545v30.854c0 6.604 5.372 11.976 11.976 11.976h18.824c6.604 0 11.977-5.372 11.977-11.976v-30.854h45.545v108.789h-133.867zm78.945 169.605c0 1.175-.955 2.13-2.13 2.13h-77.566c-1.175 0-2.13-.955-2.13-2.13v-10.958h81.825v10.958zm355.535 0c0 1.175-.955 2.13-2.13 2.13h-77.565c-1.175 0-2.13-.955-2.13-2.13v-10.958h81.825zm22.319-25.958c-160.224 0-320.489 0-482 0v-17.262c0-1.432 1.165-2.597 2.597-2.597h476.807c1.432 0 2.597 1.165 2.597 2.597v17.262z"/><path d="m297.885 182.16c4.143 0 7.5-3.357 7.5-7.5v-5.244c.935.395 1.917.608 2.899.608 2.348 0 4.659-1.099 6.122-3.158 2.398-3.377 1.604-8.06-1.772-10.458l-10.406-7.391c-2.602-1.846-6.084-1.846-8.686 0l-10.406 7.391c-3.377 2.398-4.171 7.081-1.772 10.458 2.074 2.919 5.853 3.903 9.021 2.568v5.226c0 4.143 3.357 7.5 7.5 7.5z"/><path d="m154.734 359.716-10.406-7.39c-2.602-1.846-6.084-1.846-8.686 0l-10.405 7.39c-3.377 2.398-4.171 7.081-1.772 10.458 1.463 2.06 3.774 3.158 6.122 3.158.982 0 1.964-.213 2.898-.608v5.245c0 4.143 3.357 7.5 7.5 7.5s7.5-3.357 7.5-7.5v-5.228c3.169 1.335 6.948.352 9.021-2.567 2.399-3.378 1.605-8.06-1.772-10.458z"/><path d="m275.252 359.716c-3.377 2.398-4.171 7.081-1.772 10.458 1.463 2.06 3.774 3.158 6.122 3.158.982 0 1.964-.213 2.898-.608v5.244c0 4.143 3.357 7.5 7.5 7.5s7.5-3.357 7.5-7.5v-5.228c3.169 1.335 6.948.352 9.021-2.567 2.398-3.378 1.604-8.06-1.772-10.458l-10.406-7.39c-2.602-1.846-6.084-1.846-8.686 0z"/><path d="m421.494 370.174c1.463 2.06 3.774 3.158 6.122 3.158.982 0 1.964-.213 2.898-.608v5.245c0 4.143 3.357 7.5 7.5 7.5s7.5-3.357 7.5-7.5v-5.228c3.169 1.335 6.948.352 9.021-2.567 2.398-3.378 1.604-8.06-1.772-10.458l-10.406-7.39c-2.602-1.846-6.084-1.846-8.686 0l-10.405 7.39c-3.376 2.398-4.17 7.081-1.772 10.458z"/></g></svg>